<svg version="1.1" viewBox="0.0 0.0 665.0 413.0" fill="none" stroke="none" stroke-linecap="square" stroke-miterlimit="10" width="665" height="413" xmlns:xlink="http://www.w3.org/1999/xlink" xmlns="http://www.w3.org/2000/svg"><path fill="#ffffff" d="M0 0L665.0 0L665.0 413.0L0 413.0L0 0Z" fill-rule="nonzero"/><path stroke="#cccccc" stroke-width="1.0" stroke-linecap="butt" d="M223.5 55.5L223.5 340.5" fill-rule="nonzero"/><path stroke="#cccccc" stroke-width="1.0" stroke-linecap="butt" d="M361.5 55.5L361.5 340.5" fill-rule="nonzero"/><path stroke="#cccccc" stroke-width="1.0" stroke-linecap="butt" d="M499.5 55.5L499.5 340.5" fill-rule="nonzero"/><path stroke="#cccccc" stroke-width="1.0" stroke-linecap="butt" d="M637.5 55.5L637.5 340.5" fill-rule="nonzero"/><path stroke="#333333" stroke-width="1.0" stroke-linecap="butt" d="M86.5 340.5L644.5 340.5" fill-rule="nonzero"/><path stroke="#cccccc" stroke-width="1.0" stroke-linecap="butt" d="M86.5 283.5L644.5 283.5" fill-rule="nonzero"/><path stroke="#cccccc" stroke-width="1.0" stroke-linecap="butt" d="M86.5 226.5L644.5 226.5" fill-rule="nonzero"/><path stroke="#cccccc" stroke-width="1.0" stroke-linecap="butt" d="M86.5 169.5L644.5 169.5" fill-rule="nonzero"/><path stroke="#cccccc" stroke-width="1.0" stroke-linecap="butt" d="M86.5 112.5L644.5 112.5" fill-rule="nonzero"/><path stroke="#cccccc" stroke-width="1.0" stroke-linecap="butt" d="M86.5 55.5L644.5 55.5" fill-rule="nonzero"/><clipPath id="id_0"><path d="M86.65 55.416668L644.35 55.416668L644.35 340.35L86.65 340.35L86.65 55.416668Z" clip-rule="nonzero"/></clipPath><path stroke="#ff00ff" stroke-width="2.0" stroke-linecap="butt" stroke-opacity="0.4" clip-path="url(#id_0)" d="M0 306.50027L644.35 54.578735" fill-rule="nonzero"/><path fill="#ff00ff" clip-path="url(#id_0)" d="M97.978584 294.85254C97.978584 297.3378 95.96386 299.35254 93.478584 299.35254C90.9933 299.35254 88.978584 297.3378 88.978584 294.85254C88.978584 292.36725 90.9933 290.35254 93.478584 290.35254C95.96386 290.35254 97.978584 292.36725 97.978584 294.85254Z" fill-rule="nonzero"/><path fill="#ff00ff" clip-path="url(#id_0)" d="M123.88538 260.94864C123.88538 263.43393 121.87067 265.44864 119.38538 265.44864C116.9001 265.44864 114.88538 263.43393 114.88538 260.94864C114.88538 258.46338 116.9001 256.44864 119.38538 256.44864C121.87067 256.44864 123.88538 258.46338 123.88538 260.94864Z" fill-rule="nonzero"/><path fill="#ff00ff" clip-path="url(#id_0)" d="M167.06339 232.57158C167.06339 235.05685 165.04866 237.07158 162.56339 237.07158C160.07811 237.07158 158.06339 235.05685 158.06339 232.57158C158.06339 230.08629 160.07811 228.07158 162.56339 228.07158C165.04866 228.07158 167.06339 230.08629 167.06339 232.57158Z" fill-rule="nonzero"/><path fill="#ff00ff" clip-path="url(#id_0)" d="M227.51259 197.10649C227.51259 199.59177 225.49788 201.60649 223.01259 201.60649C220.52731 201.60649 218.51259 199.59177 218.51259 197.10649C218.51259 194.62122 220.52731 192.60649 223.01259 192.60649C225.49788 192.60649 227.51259 194.62122 227.51259 197.10649Z" fill-rule="nonzero"/><path fill="#ff00ff" clip-path="url(#id_0)" d="M642.0214 63.798267C642.0214 66.28355 640.0067 68.29826 637.5214 68.29826C635.03613 68.29826 633.0214 66.28355 633.0214 63.798267C633.0214 61.312984 635.03613 59.298267 637.5214 59.298267C640.0067 59.298267 642.0214 61.312984 642.0214 63.798267Z" fill-rule="nonzero"/><path fill="#000000" d="M301.125 389.35L301.125 380.75626L302.25 380.75626L302.25 389.35L301.125 389.35ZM303.79688 389.35L303.79688 383.13126L304.73438 383.13126L304.73438 384.00626Q305.42188 382.99063 306.71875 382.99063Q307.28125 382.99063 307.75 383.19376Q308.23438 383.39688 308.46875 383.725Q308.70312 384.05313 308.79688 384.49063Q308.84375 384.7875 308.84375 385.52188L308.84375 389.35L307.79688 389.35L307.79688 385.56876Q307.79688 384.9125 307.67188 384.6Q307.54688 384.2875 307.23438 384.1Q306.92188 383.89688 306.5 383.89688Q305.82812 383.89688 305.32812 384.33438Q304.84375 384.75626 304.84375 385.94376L304.84375 389.35L303.79688 389.35ZM310.79688 391.74063L310.79688 383.13126L311.75 383.13126L311.75 383.92813Q312.09375 383.45938 312.51562 383.225Q312.95312 382.99063 313.5625 382.99063Q314.35938 382.99063 314.96875 383.39688Q315.57812 383.80313 315.875 384.55313Q316.1875 385.30313 316.1875 386.19376Q316.1875 387.14688 315.84375 387.9125Q315.51562 388.67813 314.85938 389.08438Q314.20312 389.49063 313.48438 389.49063Q312.95312 389.49063 312.53125 389.27188Q312.10938 389.0375 311.84375 388.70938L311.84375 391.74063L310.79688 391.74063ZM311.75 386.27188Q311.75 387.475 312.23438 388.05313Q312.71875 388.61563 313.40625 388.61563Q314.10938 388.61563 314.60938 388.02188Q315.10938 387.42813 315.10938 386.17813Q315.10938 384.99063 314.625 384.4125Q314.14062 383.81876 313.45312 383.81876Q312.78125 383.81876 312.26562 384.44376Q311.75 385.06876 311.75 386.27188ZM321.875 389.35L321.875 388.42813Q321.14062 389.49063 319.89062 389.49063Q319.34375 389.49063 318.85938 389.2875Q318.39062 389.06876 318.15625 388.75626Q317.92188 388.42813 317.82812 387.95938Q317.76562 387.6625 317.76562 386.975L317.76562 383.13126L318.82812 383.13126L318.82812 386.58438Q318.82812 387.39688 318.89062 387.69376Q318.98438 388.1 319.29688 388.35Q319.625 388.58438 320.10938 388.58438Q320.57812 388.58438 320.98438 388.35Q321.40625 388.1 321.57812 387.67813Q321.76562 387.25626 321.76562 386.45938L321.76562 383.13126L322.8125 383.13126L322.8125 389.35L321.875 389.35ZM327.09375 388.4125L327.25 389.33438Q326.79688 389.42813 326.45312 389.42813Q325.875 389.42813 325.5625 389.25626Q325.25 389.06876 325.10938 388.77188Q324.98438 388.475 324.98438 387.52188L324.98438 383.94376L324.21875 383.94376L324.21875 383.13126L324.98438 383.13126L324.98438 381.58438L326.03125 380.95938L326.03125 383.13126L327.09375 383.13126L327.09375 383.94376L326.03125 383.94376L326.03125 387.58438Q326.03125 388.0375 326.07812 388.1625Q326.14062 388.2875 326.26562 388.36563Q326.39062 388.44376 326.625 388.44376Q326.8125 388.44376 327.09375 388.4125ZM330.375 387.49063L331.40625 387.33438Q331.5 387.95938 331.89062 388.2875Q332.29688 388.61563 333.03125 388.61563Q333.75 388.61563 334.09375 388.33438Q334.45312 388.0375 334.45312 387.63126Q334.45312 387.27188 334.14062 387.06876Q333.92188 386.92813 333.0625 386.70938Q331.90625 386.4125 331.45312 386.20938Q331.01562 385.99063 330.78125 385.61563Q330.54688 385.24063 330.54688 384.77188Q330.54688 384.36563 330.73438 384.00626Q330.92188 383.64688 331.25 383.4125Q331.5 383.24063 331.92188 383.11563Q332.34375 382.99063 332.84375 382.99063Q333.5625 382.99063 334.10938 383.20938Q334.67188 383.4125 334.9375 383.77188Q335.20312 384.13126 335.29688 384.725L334.26562 384.86563Q334.20312 384.39688 333.85938 384.13126Q333.53125 383.85 332.90625 383.85Q332.1875 383.85 331.875 384.1Q331.5625 384.33438 331.5625 384.6625Q331.5625 384.86563 331.6875 385.02188Q331.82812 385.19376 332.09375 385.30313Q332.25 385.36563 333.03125 385.56876Q334.15625 385.88126 334.59375 386.06876Q335.03125 386.25626 335.28125 386.61563Q335.53125 386.975 335.53125 387.52188Q335.53125 388.05313 335.21875 388.52188Q334.92188 388.975 334.34375 389.24063Q333.76562 389.49063 333.03125 389.49063Q331.8125 389.49063 331.17188 388.99063Q330.54688 388.475 330.375 387.49063ZM336.79688 381.975L336.79688 380.75626L337.85938 380.75626L337.85938 381.975L336.79688 381.975ZM336.79688 389.35L336.79688 383.13126L337.85938 383.13126L337.85938 389.35L336.79688 389.35ZM339.23438 389.35L339.23438 388.49063L343.20312 383.94376Q342.51562 383.975 342.0 383.975L339.46875 383.975L339.46875 383.13126L344.5625 383.13126L344.5625 383.81876L341.1875 387.77188L340.53125 388.49063Q341.25 388.44376 341.85938 388.44376L344.75 388.44376L344.75 389.35L339.23438 389.35ZM350.04688 387.35L351.14062 387.475Q350.89062 388.42813 350.1875 388.95938Q349.48438 389.49063 348.40625 389.49063Q347.04688 389.49063 346.23438 388.64688Q345.4375 387.80313 345.4375 386.2875Q345.4375 384.725 346.25 383.86563Q347.0625 382.99063 348.34375 382.99063Q349.59375 382.99063 350.375 383.83438Q351.17188 384.67813 351.17188 386.225Q351.17188 386.31876 351.17188 386.50626L346.53125 386.50626Q346.59375 387.5375 347.10938 388.08438Q347.625 388.61563 348.40625 388.61563Q348.98438 388.61563 349.39062 388.31876Q349.8125 388.00626 350.04688 387.35ZM346.59375 385.64688L350.0625 385.64688Q350.0 384.85 349.67188 384.45938Q349.15625 383.85 348.35938 383.85Q347.625 383.85 347.125 384.33438Q346.64062 384.81876 346.59375 385.64688ZM355.375 387.49063L356.40625 387.33438Q356.5 387.95938 356.89062 388.2875Q357.29688 388.61563 358.03125 388.61563Q358.75 388.61563 359.09375 388.33438Q359.45312 388.0375 359.45312 387.63126Q359.45312 387.27188 359.14062 387.06876Q358.92188 386.92813 358.0625 386.70938Q356.90625 386.4125 356.45312 386.20938Q356.01562 385.99063 355.78125 385.61563Q355.54688 385.24063 355.54688 384.77188Q355.54688 384.36563 355.73438 384.00626Q355.92188 383.64688 356.25 383.4125Q356.5 383.24063 356.92188 383.11563Q357.34375 382.99063 357.84375 382.99063Q358.5625 382.99063 359.10938 383.20938Q359.67188 383.4125 359.9375 383.77188Q360.20312 384.13126 360.29688 384.725L359.26562 384.86563Q359.20312 384.39688 358.85938 384.13126Q358.53125 383.85 357.90625 383.85Q357.1875 383.85 356.875 384.1Q356.5625 384.33438 356.5625 384.6625Q356.5625 384.86563 356.6875 385.02188Q356.82812 385.19376 357.09375 385.30313Q357.25 385.36563 358.03125 385.56876Q359.15625 385.88126 359.59375 386.06876Q360.03125 386.25626 360.28125 386.61563Q360.53125 386.975 360.53125 387.52188Q360.53125 388.05313 360.21875 388.52188Q359.92188 388.975 359.34375 389.24063Q358.76562 389.49063 358.03125 389.49063Q356.8125 389.49063 356.17188 388.99063Q355.54688 388.475 355.375 387.49063ZM365.76562 391.74063L365.76562 388.69376Q365.51562 389.0375 365.0625 389.27188Q364.625 389.49063 364.125 389.49063Q363.01562 389.49063 362.21875 388.61563Q361.42188 387.725 361.42188 386.17813Q361.42188 385.24063 361.75 384.50626Q362.07812 383.75626 362.6875 383.38126Q363.3125 382.99063 364.04688 382.99063Q365.20312 382.99063 365.85938 383.95938L365.85938 383.13126L366.8125 383.13126L366.8125 391.74063L365.76562 391.74063ZM362.5 386.225Q362.5 387.42813 363.0 388.02188Q363.51562 388.61563 364.21875 388.61563Q364.89062 388.61563 365.375 388.05313Q365.85938 387.475 365.85938 386.31876Q365.85938 385.06876 365.34375 384.44376Q364.84375 383.81876 364.14062 383.81876Q363.46875 383.81876 362.98438 384.4125Q362.5 384.99063 362.5 386.225ZM372.875 389.35L372.875 388.42813Q372.14062 389.49063 370.89062 389.49063Q370.34375 389.49063 369.85938 389.2875Q369.39062 389.06876 369.15625 388.75626Q368.92188 388.42813 368.82812 387.95938Q368.76562 387.6625 368.76562 386.975L368.76562 383.13126L369.82812 383.13126L369.82812 386.58438Q369.82812 387.39688 369.89062 387.69376Q369.98438 388.1 370.29688 388.35Q370.625 388.58438 371.10938 388.58438Q371.57812 388.58438 371.98438 388.35Q372.40625 388.1 372.57812 387.67813Q372.76562 387.25626 372.76562 386.45938L372.76562 383.13126L373.8125 383.13126L373.8125 389.35L372.875 389.35ZM379.85938 388.58438Q379.26562 389.08438 378.71875 389.2875Q378.1875 389.49063 377.5625 389.49063Q376.53125 389.49063 375.98438 388.99063Q375.4375 388.49063 375.4375 387.70938Q375.4375 387.25626 375.64062 386.88126Q375.84375 386.49063 376.1875 386.27188Q376.53125 386.0375 376.95312 385.92813Q377.25 385.83438 377.89062 385.75626Q379.15625 385.61563 379.76562 385.39688Q379.76562 385.17813 379.76562 385.13126Q379.76562 384.475 379.46875 384.20938Q379.0625 383.86563 378.26562 383.86563Q377.53125 383.86563 377.17188 384.13126Q376.8125 384.38126 376.64062 385.0375L375.60938 384.89688Q375.75 384.24063 376.07812 383.83438Q376.40625 383.42813 377.01562 383.20938Q377.625 382.99063 378.42188 382.99063Q379.21875 382.99063 379.71875 383.17813Q380.21875 383.36563 380.45312 383.64688Q380.6875 383.92813 380.78125 384.36563Q380.82812 384.63126 380.82812 385.33438L380.82812 386.74063Q380.82812 388.20938 380.89062 388.6Q380.96875 388.99063 381.17188 389.35L380.0625 389.35Q379.90625 389.02188 379.85938 388.58438ZM379.76562 386.225Q379.1875 386.45938 378.04688 386.63126Q377.39062 386.725 377.125 386.85Q376.85938 386.95938 376.70312 387.17813Q376.5625 387.39688 376.5625 387.67813Q376.5625 388.1 376.875 388.38126Q377.20312 388.6625 377.8125 388.6625Q378.42188 388.6625 378.89062 388.39688Q379.375 388.13126 379.59375 387.6625Q379.76562 387.30313 379.76562 386.61563L379.76562 386.225ZM382.78125 389.35L382.78125 383.13126L383.73438 383.13126L383.73438 384.06876Q384.09375 383.4125 384.39062 383.20938Q384.70312 382.99063 385.07812 382.99063Q385.60938 382.99063 386.15625 383.31876L385.79688 384.30313Q385.40625 384.06876 385.03125 384.06876Q384.67188 384.06876 384.39062 384.2875Q384.125 384.49063 384.01562 384.86563Q383.82812 385.42813 383.82812 386.08438L383.82812 389.35L382.78125 389.35ZM391.04688 387.35L392.14062 387.475Q391.89062 388.42813 391.1875 388.95938Q390.48438 389.49063 389.40625 389.49063Q388.04688 389.49063 387.23438 388.64688Q386.4375 387.80313 386.4375 386.2875Q386.4375 384.725 387.25 383.86563Q388.0625 382.99063 389.34375 382.99063Q390.59375 382.99063 391.375 383.83438Q392.17188 384.67813 392.17188 386.225Q392.17188 386.31876 392.17188 386.50626L387.53125 386.50626Q387.59375 387.5375 388.10938 388.08438Q388.625 388.61563 389.40625 388.61563Q389.98438 388.61563 390.39062 388.31876Q390.8125 388.00626 391.04688 387.35ZM387.59375 385.64688L391.0625 385.64688Q391.0 384.85 390.67188 384.45938Q390.15625 383.85 389.35938 383.85Q388.625 383.85 388.125 384.33438Q387.64062 384.81876 387.59375 385.64688ZM397.82812 389.35L397.82812 388.56876Q397.23438 389.49063 396.09375 389.49063Q395.34375 389.49063 394.71875 389.08438Q394.09375 388.6625 393.75 387.92813Q393.40625 387.19376 393.40625 386.24063Q393.40625 385.31876 393.71875 384.55313Q394.03125 383.7875 394.65625 383.39688Q395.28125 382.99063 396.04688 382.99063Q396.60938 382.99063 397.04688 383.225Q397.48438 383.45938 397.76562 383.83438L397.76562 380.75626L398.8125 380.75626L398.8125 389.35L397.82812 389.35ZM394.5 386.24063Q394.5 387.44376 395.0 388.0375Q395.5 388.61563 396.1875 388.61563Q396.875 388.61563 397.35938 388.05313Q397.84375 387.49063 397.84375 386.33438Q397.84375 385.05313 397.34375 384.45938Q396.85938 383.86563 396.14062 383.86563Q395.4375 383.86563 394.96875 384.44376Q394.5 385.00626 394.5 386.24063ZM405.8125 391.88126Q404.9375 390.77188 404.32812 389.30313Q403.73438 387.81876 403.73438 386.24063Q403.73438 384.85 404.17188 383.56876Q404.70312 382.08438 405.8125 380.61563L406.5625 380.61563Q405.85938 381.83438 405.625 382.35Q405.26562 383.1625 405.0625 384.0375Q404.8125 385.13126 404.8125 386.24063Q404.8125 389.06876 406.5625 391.88126L405.8125 391.88126ZM407.79688 389.35L407.79688 383.13126L408.73438 383.13126L408.73438 384.00626Q409.42188 382.99063 410.71875 382.99063Q411.28125 382.99063 411.75 383.19376Q412.23438 383.39688 412.46875 383.725Q412.70312 384.05313 412.79688 384.49063Q412.84375 384.7875 412.84375 385.52188L412.84375 389.35L411.79688 389.35L411.79688 385.56876Q411.79688 384.9125 411.67188 384.6Q411.54688 384.2875 411.23438 384.1Q410.92188 383.89688 410.5 383.89688Q409.82812 383.89688 409.32812 384.33438Q408.84375 384.75626 408.84375 385.94376L408.84375 389.35L407.79688 389.35ZM415.40625 385.30313L414.3125 385.30313L416.39062 380.61563L417.23438 380.61563L419.3125 385.30313L418.25 385.30313L416.8125 381.80313L415.40625 385.30313ZM426.04688 388.33438L426.04688 389.35L420.35938 389.35Q420.35938 388.975 420.48438 388.61563Q420.70312 388.0375 421.17188 387.475Q421.65625 386.9125 422.5625 386.17813Q423.96875 385.02188 424.45312 384.35Q424.95312 383.67813 424.95312 383.08438Q424.95312 382.45938 424.5 382.0375Q424.04688 381.6 423.32812 381.6Q422.5625 381.6 422.10938 382.05313Q421.65625 382.50626 421.64062 383.31876L420.5625 383.20938Q420.67188 381.99063 421.39062 381.36563Q422.125 380.725 423.35938 380.725Q424.59375 380.725 425.3125 381.4125Q426.03125 382.1 426.03125 383.11563Q426.03125 383.63126 425.8125 384.13126Q425.60938 384.61563 425.10938 385.17813Q424.625 385.725 423.5 386.67813Q422.54688 387.475 422.26562 387.77188Q422.0 388.05313 421.82812 388.33438L426.04688 388.33438ZM428.48438 391.88126L427.73438 391.88126Q429.48438 389.06876 429.48438 386.24063Q429.48438 385.14688 429.23438 384.05313Q429.03125 383.17813 428.67188 382.36563Q428.4375 381.85 427.73438 380.61563L428.48438 380.61563Q429.57812 382.08438 430.10938 383.56876Q430.5625 384.85 430.5625 386.24063Q430.5625 387.81876 429.95312 389.30313Q429.34375 390.77188 428.48438 391.88126Z" fill-rule="nonzero"/><path fill="#000000" d="M31.650005 228.27396L24.07188 228.27396L24.07188 231.10208L23.056255 231.10208L23.056255 224.28958L24.07188 224.28958L24.07188 227.13333L31.650005 227.13333L31.650005 228.27396ZM24.275005 223.58646L23.056255 223.58646L23.056255 222.52396L24.275005 222.52396L24.275005 223.58646ZM31.650005 223.58646L25.431255 223.58646L25.431255 222.52396L31.650005 222.52396L31.650005 223.58646ZM31.650005 220.58646L25.431255 220.58646L25.431255 219.64896L26.306255 219.64896Q25.837505 219.35208 25.57188 218.8677Q25.29063 218.38333 25.29063 217.75833Q25.29063 217.07083 25.57188 216.63333Q25.85313 216.1802 26.368755 216.00833Q25.29063 215.25833 25.29063 214.08646Q25.29063 213.14896 25.806255 212.66458Q26.306255 212.16458 27.38438 212.16458L31.650005 212.16458L31.650005 213.21146L27.72813 213.21146Q27.10313 213.21146 26.82188 213.32083Q26.54063 213.41458 26.368755 213.6802Q26.19688 213.94583 26.19688 214.32083Q26.19688 214.97708 26.63438 215.41458Q27.07188 215.83646 28.04063 215.83646L31.650005 215.83646L31.650005 216.89896L27.60313 216.89896Q26.900005 216.89896 26.556255 217.16458Q26.19688 217.41458 26.19688 217.9927Q26.19688 218.44583 26.431255 218.82083Q26.66563 219.19583 27.118755 219.3677Q27.57188 219.53958 28.41563 219.53958L31.650005 219.53958L31.650005 220.58646ZM29.650005 206.33646L29.775005 205.2427Q30.72813 205.4927 31.25938 206.19583Q31.79063 206.89896 31.79063 207.97708Q31.79063 209.33646 30.94688 210.14896Q30.10313 210.94583 28.587505 210.94583Q27.025005 210.94583 26.16563 210.13333Q25.29063 209.32083 25.29063 208.03958Q25.29063 206.78958 26.13438 206.00833Q26.97813 205.21146 28.525005 205.21146Q28.618755 205.21146 28.806255 205.21146L28.806255 209.85208Q29.837505 209.78958 30.38438 209.27396Q30.91563 208.75833 30.91563 207.97708Q30.91563 207.39896 30.618755 206.9927Q30.306255 206.57083 29.650005 206.33646ZM27.94688 209.78958L27.94688 206.32083Q27.150005 206.38333 26.75938 206.71146Q26.150005 207.22708 26.150005 208.02396Q26.150005 208.75833 26.63438 209.25833Q27.118755 209.7427 27.94688 209.78958ZM34.181255 198.57083Q33.07188 199.44583 31.60313 200.0552Q30.118755 200.64896 28.54063 200.64896Q27.150005 200.64896 25.868755 200.21146Q24.38438 199.6802 22.91563 198.57083L22.91563 197.82083Q24.13438 198.52396 24.650005 198.75833Q25.462505 199.1177 26.337505 199.32083Q27.431255 199.57083 28.54063 199.57083Q31.368755 199.57083 34.181255 197.82083L34.181255 198.57083ZM31.650005 196.58646L25.431255 196.58646L25.431255 195.64896L26.306255 195.64896Q25.837505 195.35208 25.57188 194.8677Q25.29063 194.38333 25.29063 193.75833Q25.29063 193.07083 25.57188 192.63333Q25.85313 192.1802 26.368755 192.00833Q25.29063 191.25833 25.29063 190.08646Q25.29063 189.14896 25.806255 188.66458Q26.306255 188.16458 27.38438 188.16458L31.650005 188.16458L31.650005 189.21146L27.72813 189.21146Q27.10313 189.21146 26.82188 189.32083Q26.54063 189.41458 26.368755 189.6802Q26.19688 189.94583 26.19688 190.32083Q26.19688 190.97708 26.63438 191.41458Q27.07188 191.83646 28.04063 191.83646L31.650005 191.83646L31.650005 192.89896L27.60313 192.89896Q26.900005 192.89896 26.556255 193.16458Q26.19688 193.41458 26.19688 193.9927Q26.19688 194.44583 26.431255 194.82083Q26.66563 195.19583 27.118755 195.3677Q27.57188 195.53958 28.41563 195.53958L31.650005 195.53958L31.650005 196.58646ZM29.79063 187.00833L29.63438 185.97708Q30.25938 185.88333 30.587505 185.4927Q30.91563 185.08646 30.91563 184.35208Q30.91563 183.63333 30.63438 183.28958Q30.337505 182.9302 29.931255 182.9302Q29.57188 182.9302 29.368755 183.2427Q29.22813 183.46146 29.00938 184.32083Q28.712505 185.47708 28.50938 185.9302Q28.29063 186.3677 27.91563 186.60208Q27.54063 186.83646 27.07188 186.83646Q26.66563 186.83646 26.306255 186.64896Q25.94688 186.46146 25.712505 186.13333Q25.54063 185.88333 25.41563 185.46146Q25.29063 185.03958 25.29063 184.53958Q25.29063 183.82083 25.50938 183.27396Q25.712505 182.71146 26.07188 182.44583Q26.431255 182.1802 27.025005 182.08646L27.16563 183.1177Q26.69688 183.1802 26.431255 183.52396Q26.150005 183.85208 26.150005 184.47708Q26.150005 185.19583 26.400005 185.50833Q26.63438 185.82083 26.962505 185.82083Q27.16563 185.82083 27.32188 185.69583Q27.493755 185.5552 27.60313 185.28958Q27.66563 185.13333 27.868755 184.35208Q28.181255 183.22708 28.368755 182.78958Q28.556255 182.35208 28.91563 182.10208Q29.275005 181.85208 29.82188 181.85208Q30.35313 181.85208 30.82188 182.16458Q31.275005 182.46146 31.54063 183.03958Q31.79063 183.6177 31.79063 184.35208Q31.79063 185.57083 31.29063 186.21146Q30.775005 186.83646 29.79063 187.00833ZM34.181255 179.89896L34.181255 180.64896Q31.368755 178.89896 28.54063 178.89896Q27.44688 178.89896 26.35313 179.14896Q25.47813 179.35208 24.66563 179.71146Q24.150005 179.94583 22.91563 180.64896L22.91563 179.89896Q24.38438 178.8052 25.868755 178.27396Q27.150005 177.82083 28.54063 177.82083Q30.118755 177.82083 31.60313 178.4302Q33.07188 179.03958 34.181255 179.89896Z" fill-rule="nonzero"/><path fill="#000000" d="M74.15 340.11563Q74.15 338.58438 74.4625 337.6625Q74.775 336.725 75.38438 336.225Q76.00938 335.725 76.94688 335.725Q77.63438 335.725 78.15 336.00626Q78.68125 336.2875 79.025 336.81876Q79.36875 337.33438 79.55625 338.08438Q79.74375 338.83438 79.74375 340.11563Q79.74375 341.63126 79.43125 342.55313Q79.13438 343.475 78.50938 343.99063Q77.9 344.49063 76.94688 344.49063Q75.7125 344.49063 74.99375 343.6Q74.15 342.5375 74.15 340.11563ZM75.22813 340.11563Q75.22813 342.225 75.72813 342.92813Q76.22813 343.63126 76.94688 343.63126Q77.68125 343.63126 78.16563 342.92813Q78.66563 342.225 78.66563 340.11563Q78.66563 337.99063 78.16563 337.30313Q77.68125 336.6 76.93125 336.6Q76.2125 336.6 75.775 337.20938Q75.22813 337.99063 75.22813 340.11563Z" fill-rule="nonzero"/><path fill="#000000" d="M65.69688 286.34772L65.69688 287.36334L60.009377 287.36334Q60.009377 286.98834 60.134377 286.62897Q60.353127 286.05084 60.821877 285.48834Q61.30625 284.92584 62.2125 284.19147Q63.61875 283.03522 64.10313 282.36334Q64.60313 281.69147 64.60313 281.09772Q64.60313 280.47272 64.15 280.05084Q63.696877 279.61334 62.978127 279.61334Q62.2125 279.61334 61.759377 280.06647Q61.30625 280.5196 61.290627 281.3321L60.2125 281.22272Q60.321877 280.00397 61.040627 279.37897Q61.775 278.73834 63.009377 278.73834Q64.24375 278.73834 64.9625 279.42584Q65.68125 280.11334 65.68125 281.12897Q65.68125 281.6446 65.4625 282.1446Q65.25938 282.62897 64.75938 283.19147Q64.275 283.73834 63.15 284.69147Q62.196877 285.48834 61.915627 285.78522Q61.65 286.06647 61.478127 286.34772L65.69688 286.34772ZM67.15 285.11334L68.25938 285.0196Q68.38438 285.8321 68.82188 286.23834Q69.275 286.6446 69.91563 286.6446Q70.66563 286.6446 71.19688 286.06647Q71.72813 285.48834 71.72813 284.55084Q71.72813 283.6446 71.2125 283.12897Q70.7125 282.59772 69.88438 282.59772Q69.38438 282.59772 68.9625 282.8321Q68.55625 283.06647 68.32188 283.42584L67.3375 283.30084L68.16563 278.8946L72.44688 278.8946L72.44688 279.8946L69.00938 279.8946L68.55625 282.2071Q69.32188 281.66022 70.16563 281.66022Q71.29063 281.66022 72.05625 282.44147Q72.8375 283.22272 72.8375 284.4571Q72.8375 285.61334 72.16563 286.47272Q71.3375 287.50397 69.91563 287.50397Q68.74375 287.50397 67.99375 286.84772Q67.25938 286.19147 67.15 285.11334ZM74.15 283.12897Q74.15 281.59772 74.4625 280.67584Q74.775 279.73834 75.38438 279.23834Q76.00938 278.73834 76.94688 278.73834Q77.63438 278.73834 78.15 279.0196Q78.68125 279.30084 79.025 279.8321Q79.36875 280.34772 79.55625 281.09772Q79.74375 281.84772 79.74375 283.12897Q79.74375 284.6446 79.43125 285.56647Q79.13438 286.48834 78.50938 287.00397Q77.9 287.50397 76.94688 287.50397Q75.7125 287.50397 74.99375 286.61334Q74.15 285.55084 74.15 283.12897ZM75.22813 283.12897Q75.22813 285.23834 75.72813 285.94147Q76.22813 286.6446 76.94688 286.6446Q77.68125 286.6446 78.16563 285.94147Q78.66563 285.23834 78.66563 283.12897Q78.66563 281.00397 78.16563 280.31647Q77.68125 279.61334 76.93125 279.61334Q76.2125 279.61334 75.775 280.22272Q75.22813 281.00397 75.22813 283.12897Z" fill-rule="nonzero"/><path fill="#000000" d="M60.15 228.12666L61.259377 228.03291Q61.384377 228.84541 61.821877 229.25166Q62.275 229.65791 62.915627 229.65791Q63.665627 229.65791 64.19688 229.07979Q64.72813 228.50166 64.72813 227.56416Q64.72813 226.65791 64.2125 226.14229Q63.7125 225.61104 62.884377 225.61104Q62.384377 225.61104 61.9625 225.84541Q61.55625 226.07979 61.321877 226.43916L60.3375 226.31416L61.165627 221.90791L65.44688 221.90791L65.44688 222.90791L62.009377 222.90791L61.55625 225.22041Q62.321877 224.67354 63.165627 224.67354Q64.29063 224.67354 65.05625 225.45479Q65.8375 226.23604 65.8375 227.47041Q65.8375 228.62666 65.16563 229.48604Q64.3375 230.51729 62.915627 230.51729Q61.74375 230.51729 60.99375 229.86104Q60.259377 229.20479 60.15 228.12666ZM67.15 226.14229Q67.15 224.61104 67.4625 223.68916Q67.775 222.75166 68.38438 222.25166Q69.00938 221.75166 69.94688 221.75166Q70.63438 221.75166 71.15 222.03291Q71.68125 222.31416 72.025 222.84541Q72.36875 223.36104 72.55625 224.11104Q72.74375 224.86104 72.74375 226.14229Q72.74375 227.65791 72.43125 228.57979Q72.13438 229.50166 71.50938 230.01729Q70.9 230.51729 69.94688 230.51729Q68.7125 230.51729 67.99375 229.62666Q67.15 228.56416 67.15 226.14229ZM68.22813 226.14229Q68.22813 228.25166 68.72813 228.95479Q69.22813 229.65791 69.94688 229.65791Q70.68125 229.65791 71.16563 228.95479Q71.66563 228.25166 71.66563 226.14229Q71.66563 224.01729 71.16563 223.32979Q70.68125 222.62666 69.93125 222.62666Q69.2125 222.62666 68.775 223.23604Q68.22813 224.01729 68.22813 226.14229ZM74.15 226.14229Q74.15 224.61104 74.4625 223.68916Q74.775 222.75166 75.38438 222.25166Q76.00938 221.75166 76.94688 221.75166Q77.63438 221.75166 78.15 222.03291Q78.68125 222.31416 79.025 222.84541Q79.36875 223.36104 79.55625 224.11104Q79.74375 224.86104 79.74375 226.14229Q79.74375 227.65791 79.43125 228.57979Q79.13438 229.50166 78.50938 230.01729Q77.9 230.51729 76.94688 230.51729Q75.7125 230.51729 74.99375 229.62666Q74.15 228.56416 74.15 226.14229ZM75.22813 226.14229Q75.22813 228.25166 75.72813 228.95479Q76.22813 229.65791 76.94688 229.65791Q77.68125 229.65791 78.16563 228.95479Q78.66563 228.25166 78.66563 226.14229Q78.66563 224.01729 78.16563 223.32979Q77.68125 222.62666 76.93125 222.62666Q76.2125 222.62666 75.775 223.23604Q75.22813 224.01729 75.22813 226.14229Z" fill-rule="nonzero"/><path fill="#000000" d="M60.2125 165.92125L60.2125 164.90562L65.775 164.90562L65.775 165.73375Q64.9625 166.60875 64.15 168.06187Q63.353127 169.49937 62.915627 171.03062Q62.5875 172.10875 62.509377 173.39L61.415627 173.39Q61.43125 172.37437 61.80625 170.93687Q62.196877 169.49937 62.9 168.17125Q63.61875 166.84312 64.43125 165.92125L60.2125 165.92125ZM67.15 171.14L68.25938 171.04625Q68.38438 171.85875 68.82188 172.265Q69.275 172.67125 69.91563 172.67125Q70.66563 172.67125 71.19688 172.09312Q71.72813 171.515 71.72813 170.5775Q71.72813 169.67125 71.2125 169.15562Q70.7125 168.62437 69.88438 168.62437Q69.38438 168.62437 68.9625 168.85875Q68.55625 169.09312 68.32188 169.4525L67.3375 169.3275L68.16563 164.92125L72.44688 164.92125L72.44688 165.92125L69.00938 165.92125L68.55625 168.23375Q69.32188 167.68687 70.16563 167.68687Q71.29063 167.68687 72.05625 168.46812Q72.8375 169.24937 72.8375 170.48375Q72.8375 171.64 72.16563 172.49937Q71.3375 173.53062 69.91563 173.53062Q68.74375 173.53062 67.99375 172.87437Q67.25938 172.21812 67.15 171.14ZM74.15 169.15562Q74.15 167.62437 74.4625 166.7025Q74.775 165.765 75.38438 165.265Q76.00938 164.765 76.94688 164.765Q77.63438 164.765 78.15 165.04625Q78.68125 165.3275 79.025 165.85875Q79.36875 166.37437 79.55625 167.12437Q79.74375 167.87437 79.74375 169.15562Q79.74375 170.67125 79.43125 171.59312Q79.13438 172.515 78.50938 173.03062Q77.9 173.53062 76.94688 173.53062Q75.7125 173.53062 74.99375 172.64Q74.15 171.5775 74.15 169.15562ZM75.22813 169.15562Q75.22813 171.265 75.72813 171.96812Q76.22813 172.67125 76.94688 172.67125Q77.68125 172.67125 78.16563 171.96812Q78.66563 171.265 78.66563 169.15562Q78.66563 167.03062 78.16563 166.34312Q77.68125 165.64 76.93125 165.64Q76.2125 165.64 75.775 166.24937Q75.22813 167.03062 75.22813 169.15562Z" fill-rule="nonzero"/><path fill="#000000" d="M57.11875 116.403336L56.071877 116.403336L56.071877 109.684586Q55.68125 110.04396 55.05625 110.41896Q54.446877 110.778336 53.9625 110.95021L53.9625 109.934586Q54.8375 109.51271 55.49375 108.934586Q56.165627 108.340836 56.446877 107.778336L57.11875 107.778336L57.11875 116.403336ZM60.15 112.16896Q60.15 110.63771 60.4625 109.715836Q60.775 108.778336 61.384377 108.278336Q62.009377 107.778336 62.946877 107.778336Q63.634377 107.778336 64.15 108.059586Q64.68125 108.340836 65.025 108.872086Q65.36875 109.38771 65.55625 110.13771Q65.74375 110.88771 65.74375 112.16896Q65.74375 113.684586 65.43125 114.60646Q65.13438 115.528336 64.50938 116.04396Q63.9 116.54396 62.946877 116.54396Q61.7125 116.54396 60.99375 115.653336Q60.15 114.590836 60.15 112.16896ZM61.228127 112.16896Q61.228127 114.278336 61.728127 114.98146Q62.228127 115.684586 62.946877 115.684586Q63.68125 115.684586 64.16563 114.98146Q64.66563 114.278336 64.66563 112.16896Q64.66563 110.04396 64.16563 109.35646Q63.68125 108.653336 62.93125 108.653336Q62.2125 108.653336 61.775 109.26271Q61.228127 110.04396 61.228127 112.16896ZM67.15 112.16896Q67.15 110.63771 67.4625 109.715836Q67.775 108.778336 68.38438 108.278336Q69.00938 107.778336 69.94688 107.778336Q70.63438 107.778336 71.15 108.059586Q71.68125 108.340836 72.025 108.872086Q72.36875 109.38771 72.55625 110.13771Q72.74375 110.88771 72.74375 112.16896Q72.74375 113.684586 72.43125 114.60646Q72.13438 115.528336 71.50938 116.04396Q70.9 116.54396 69.94688 116.54396Q68.7125 116.54396 67.99375 115.653336Q67.15 114.590836 67.15 112.16896ZM68.22813 112.16896Q68.22813 114.278336 68.72813 114.98146Q69.22813 115.684586 69.94688 115.684586Q70.68125 115.684586 71.16563 114.98146Q71.66563 114.278336 71.66563 112.16896Q71.66563 110.04396 71.16563 109.35646Q70.68125 108.653336 69.93125 108.653336Q69.2125 108.653336 68.775 109.26271Q68.22813 110.04396 68.22813 112.16896ZM74.15 112.16896Q74.15 110.63771 74.4625 109.715836Q74.775 108.778336 75.38438 108.278336Q76.00938 107.778336 76.94688 107.778336Q77.63438 107.778336 78.15 108.059586Q78.68125 108.340836 79.025 108.872086Q79.36875 109.38771 79.55625 110.13771Q79.74375 110.88771 79.74375 112.16896Q79.74375 113.684586 79.43125 114.60646Q79.13438 115.528336 78.50938 116.04396Q77.9 116.54396 76.94688 116.54396Q75.7125 116.54396 74.99375 115.653336Q74.15 114.590836 74.15 112.16896ZM75.22813 112.16896Q75.22813 114.278336 75.72813 114.98146Q76.22813 115.684586 76.94688 115.684586Q77.68125 115.684586 78.16563 114.98146Q78.66563 114.278336 78.66563 112.16896Q78.66563 110.04396 78.16563 109.35646Q77.68125 108.653336 76.93125 108.653336Q76.2125 108.653336 75.775 109.26271Q75.22813 110.04396 75.22813 112.16896Z" fill-rule="nonzero"/><path fill="#000000" d="M57.11875 59.416668L56.071877 59.416668L56.071877 52.697918Q55.68125 53.057293 55.05625 53.432293Q54.446877 53.791668 53.9625 53.963543L53.9625 52.947918Q54.8375 52.526043 55.49375 51.947918Q56.165627 51.354168 56.446877 50.791668L57.11875 50.791668L57.11875 59.416668ZM65.69688 58.401043L65.69688 59.416668L60.009377 59.416668Q60.009377 59.041668 60.134377 58.682293Q60.353127 58.104168 60.821877 57.541668Q61.30625 56.979168 62.2125 56.244793Q63.61875 55.088543 64.10313 54.416668Q64.60313 53.744793 64.60313 53.151043Q64.60313 52.526043 64.15 52.104168Q63.696877 51.666668 62.978127 51.666668Q62.2125 51.666668 61.759377 52.119793Q61.30625 52.572918 61.290627 53.385418L60.2125 53.276043Q60.321877 52.057293 61.040627 51.432293Q61.775 50.791668 63.009377 50.791668Q64.24375 50.791668 64.9625 51.479168Q65.68125 52.166668 65.68125 53.182293Q65.68125 53.697918 65.4625 54.197918Q65.25938 54.682293 64.75938 55.244793Q64.275 55.791668 63.15 56.744793Q62.196877 57.541668 61.915627 57.838543Q61.65 58.119793 61.478127 58.401043L65.69688 58.401043ZM67.15 57.166668L68.25938 57.072918Q68.38438 57.885418 68.82188 58.291668Q69.275 58.697918 69.91563 58.697918Q70.66563 58.697918 71.19688 58.119793Q71.72813 57.541668 71.72813 56.604168Q71.72813 55.697918 71.2125 55.182293Q70.7125 54.651043 69.88438 54.651043Q69.38438 54.651043 68.9625 54.885418Q68.55625 55.119793 68.32188 55.479168L67.3375 55.354168L68.16563 50.947918L72.44688 50.947918L72.44688 51.947918L69.00938 51.947918L68.55625 54.260418Q69.32188 53.713543 70.16563 53.713543Q71.29063 53.713543 72.05625 54.494793Q72.8375 55.276043 72.8375 56.510418Q72.8375 57.666668 72.16563 58.526043Q71.3375 59.557293 69.91563 59.557293Q68.74375 59.557293 67.99375 58.901043Q67.25938 58.244793 67.15 57.166668ZM74.15 55.182293Q74.15 53.651043 74.4625 52.729168Q74.775 51.791668 75.38438 51.291668Q76.00938 50.791668 76.94688 50.791668Q77.63438 50.791668 78.15 51.072918Q78.68125 51.354168 79.025 51.885418Q79.36875 52.401043 79.55625 53.151043Q79.74375 53.901043 79.74375 55.182293Q79.74375 56.697918 79.43125 57.619793Q79.13438 58.541668 78.50938 59.057293Q77.9 59.557293 76.94688 59.557293Q75.7125 59.557293 74.99375 58.666668Q74.15 57.604168 74.15 55.182293ZM75.22813 55.182293Q75.22813 57.291668 75.72813 57.994793Q76.22813 58.697918 76.94688 58.697918Q77.68125 58.697918 78.16563 57.994793Q78.66563 57.291668 78.66563 55.182293Q78.66563 53.057293 78.16563 52.369793Q77.68125 51.666668 76.93125 51.666668Q76.2125 51.666668 75.775 52.276043Q75.22813 53.057293 75.22813 55.182293Z" fill-rule="nonzero"/><path fill="#000000" d="M188.98134 357.35L187.93446 357.35L187.93446 350.63126Q187.54384 350.99063 186.91884 351.36563Q186.30946 351.725 185.82509 351.89688L185.82509 350.88126Q186.70009 350.45938 187.35634 349.88126Q188.02821 349.2875 188.30946 348.725L188.98134 348.725L188.98134 357.35ZM192.01259 353.11563Q192.01259 351.58438 192.32509 350.6625Q192.63759 349.725 193.24696 349.225Q193.87196 348.725 194.80946 348.725Q195.49696 348.725 196.01259 349.00626Q196.54384 349.2875 196.88759 349.81876Q197.23134 350.33438 197.41884 351.08438Q197.60634 351.83438 197.60634 353.11563Q197.60634 354.63126 197.29384 355.55313Q196.99696 356.475 196.37196 356.99063Q195.76259 357.49063 194.80946 357.49063Q193.57509 357.49063 192.85634 356.6Q192.01259 355.5375 192.01259 353.11563ZM193.09071 353.11563Q193.09071 355.225 193.59071 355.92813Q194.09071 356.63126 194.80946 356.63126Q195.54384 356.63126 196.02821 355.92813Q196.52821 355.225 196.52821 353.11563Q196.52821 350.99063 196.02821 350.30313Q195.54384 349.6 194.79384 349.6Q194.07509 349.6 193.63759 350.20938Q193.09071 350.99063 193.09071 353.11563ZM199.01259 353.11563Q199.01259 351.58438 199.32509 350.6625Q199.63759 349.725 200.24696 349.225Q200.87196 348.725 201.80946 348.725Q202.49696 348.725 203.01259 349.00626Q203.54384 349.2875 203.88759 349.81876Q204.23134 350.33438 204.41884 351.08438Q204.60634 351.83438 204.60634 353.11563Q204.60634 354.63126 204.29384 355.55313Q203.99696 356.475 203.37196 356.99063Q202.76259 357.49063 201.80946 357.49063Q200.57509 357.49063 199.85634 356.6Q199.01259 355.5375 199.01259 353.11563ZM200.09071 353.11563Q200.09071 355.225 200.59071 355.92813Q201.09071 356.63126 201.80946 356.63126Q202.54384 356.63126 203.02821 355.92813Q203.52821 355.225 203.52821 353.11563Q203.52821 350.99063 203.02821 350.30313Q202.54384 349.6 201.79384 349.6Q201.07509 349.6 200.63759 350.20938Q200.09071 350.99063 200.09071 353.11563ZM206.01259 353.11563Q206.01259 351.58438 206.32509 350.6625Q206.63759 349.725 207.24696 349.225Q207.87196 348.725 208.80946 348.725Q209.49696 348.725 210.01259 349.00626Q210.54384 349.2875 210.88759 349.81876Q211.23134 350.33438 211.41884 351.08438Q211.60634 351.83438 211.60634 353.11563Q211.60634 354.63126 211.29384 355.55313Q210.99696 356.475 210.37196 356.99063Q209.76259 357.49063 208.80946 357.49063Q207.57509 357.49063 206.85634 356.6Q206.01259 355.5375 206.01259 353.11563ZM207.09071 353.11563Q207.09071 355.225 207.59071 355.92813Q208.09071 356.63126 208.80946 356.63126Q209.54384 356.63126 210.02821 355.92813Q210.52821 355.225 210.52821 353.11563Q210.52821 350.99063 210.02821 350.30313Q209.54384 349.6 208.79384 349.6Q208.07509 349.6 207.63759 350.20938Q207.09071 350.99063 207.09071 353.11563ZM213.01259 353.11563Q213.01259 351.58438 213.32509 350.6625Q213.63759 349.725 214.24696 349.225Q214.87196 348.725 215.80946 348.725Q216.49696 348.725 217.01259 349.00626Q217.54384 349.2875 217.88759 349.81876Q218.23134 350.33438 218.41884 351.08438Q218.60634 351.83438 218.60634 353.11563Q218.60634 354.63126 218.29384 355.55313Q217.99696 356.475 217.37196 356.99063Q216.76259 357.49063 215.80946 357.49063Q214.57509 357.49063 213.85634 356.6Q213.01259 355.5375 213.01259 353.11563ZM214.09071 353.11563Q214.09071 355.225 214.59071 355.92813Q215.09071 356.63126 215.80946 356.63126Q216.54384 356.63126 217.02821 355.92813Q217.52821 355.225 217.52821 353.11563Q217.52821 350.99063 217.02821 350.30313Q216.54384 349.6 215.79384 349.6Q215.07509 349.6 214.63759 350.20938Q214.09071 350.99063 214.09071 353.11563ZM220.01259 353.11563Q220.01259 351.58438 220.32509 350.6625Q220.63759 349.725 221.24696 349.225Q221.87196 348.725 222.80946 348.725Q223.49696 348.725 224.01259 349.00626Q224.54384 349.2875 224.88759 349.81876Q225.23134 350.33438 225.41884 351.08438Q225.60634 351.83438 225.60634 353.11563Q225.60634 354.63126 225.29384 355.55313Q224.99696 356.475 224.37196 356.99063Q223.76259 357.49063 222.80946 357.49063Q221.57509 357.49063 220.85634 356.6Q220.01259 355.5375 220.01259 353.11563ZM221.09071 353.11563Q221.09071 355.225 221.59071 355.92813Q222.09071 356.63126 222.80946 356.63126Q223.54384 356.63126 224.02821 355.92813Q224.52821 355.225 224.52821 353.11563Q224.52821 350.99063 224.02821 350.30313Q223.54384 349.6 222.79384 349.6Q222.07509 349.6 221.63759 350.20938Q221.09071 350.99063 221.09071 353.11563ZM227.01259 353.11563Q227.01259 351.58438 227.32509 350.6625Q227.63759 349.725 228.24696 349.225Q228.87196 348.725 229.80946 348.725Q230.49696 348.725 231.01259 349.00626Q231.54384 349.2875 231.88759 349.81876Q232.23134 350.33438 232.41884 351.08438Q232.60634 351.83438 232.60634 353.11563Q232.60634 354.63126 232.29384 355.55313Q231.99696 356.475 231.37196 356.99063Q230.76259 357.49063 229.80946 357.49063Q228.57509 357.49063 227.85634 356.6Q227.01259 355.5375 227.01259 353.11563ZM228.09071 353.11563Q228.09071 355.225 228.59071 355.92813Q229.09071 356.63126 229.80946 356.63126Q230.54384 356.63126 231.02821 355.92813Q231.52821 355.225 231.52821 353.11563Q231.52821 350.99063 231.02821 350.30313Q230.54384 349.6 229.79384 349.6Q229.07509 349.6 228.63759 350.20938Q228.09071 350.99063 228.09071 353.11563ZM234.01259 353.11563Q234.01259 351.58438 234.32509 350.6625Q234.63759 349.725 235.24696 349.225Q235.87196 348.725 236.80946 348.725Q237.49696 348.725 238.01259 349.00626Q238.54384 349.2875 238.88759 349.81876Q239.23134 350.33438 239.41884 351.08438Q239.60634 351.83438 239.60634 353.11563Q239.60634 354.63126 239.29384 355.55313Q238.99696 356.475 238.37196 356.99063Q237.76259 357.49063 236.80946 357.49063Q235.57509 357.49063 234.85634 356.6Q234.01259 355.5375 234.01259 353.11563ZM235.09071 353.11563Q235.09071 355.225 235.59071 355.92813Q236.09071 356.63126 236.80946 356.63126Q237.54384 356.63126 238.02821 355.92813Q238.52821 355.225 238.52821 353.11563Q238.52821 350.99063 238.02821 350.30313Q237.54384 349.6 236.79384 349.6Q236.07509 349.6 235.63759 350.20938Q235.09071 350.99063 235.09071 353.11563ZM241.01259 353.11563Q241.01259 351.58438 241.32509 350.6625Q241.63759 349.725 242.24696 349.225Q242.87196 348.725 243.80946 348.725Q244.49696 348.725 245.01259 349.00626Q245.54384 349.2875 245.88759 349.81876Q246.23134 350.33438 246.41884 351.08438Q246.60634 351.83438 246.60634 353.11563Q246.60634 354.63126 246.29384 355.55313Q245.99696 356.475 245.37196 356.99063Q244.76259 357.49063 243.80946 357.49063Q242.57509 357.49063 241.85634 356.6Q241.01259 355.5375 241.01259 353.11563ZM242.09071 353.11563Q242.09071 355.225 242.59071 355.92813Q243.09071 356.63126 243.80946 356.63126Q244.54384 356.63126 245.02821 355.92813Q245.52821 355.225 245.52821 353.11563Q245.52821 350.99063 245.02821 350.30313Q244.54384 349.6 243.79384 349.6Q243.07509 349.6 242.63759 350.20938Q242.09071 350.99063 242.09071 353.11563ZM248.01259 353.11563Q248.01259 351.58438 248.32509 350.6625Q248.63759 349.725 249.24696 349.225Q249.87196 348.725 250.80946 348.725Q251.49696 348.725 252.01259 349.00626Q252.54384 349.2875 252.88759 349.81876Q253.23134 350.33438 253.41884 351.08438Q253.60634 351.83438 253.60634 353.11563Q253.60634 354.63126 253.29384 355.55313Q252.99696 356.475 252.37196 356.99063Q251.76259 357.49063 250.80946 357.49063Q249.57509 357.49063 248.85634 356.6Q248.01259 355.5375 248.01259 353.11563ZM249.09071 353.11563Q249.09071 355.225 249.59071 355.92813Q250.09071 356.63126 250.80946 356.63126Q251.54384 356.63126 252.02821 355.92813Q252.52821 355.225 252.52821 353.11563Q252.52821 350.99063 252.02821 350.30313Q251.54384 349.6 250.79384 349.6Q250.07509 349.6 249.63759 350.20938Q249.09071 350.99063 249.09071 353.11563ZM255.01259 353.11563Q255.01259 351.58438 255.32509 350.6625Q255.63759 349.725 256.24695 349.225Q256.87195 348.725 257.80945 348.725Q258.49695 348.725 259.01257 349.00626Q259.54382 349.2875 259.88757 349.81876Q260.23132 350.33438 260.41882 351.08438Q260.60632 351.83438 260.60632 353.11563Q260.60632 354.63126 260.29382 355.55313Q259.99695 356.475 259.37195 356.99063Q258.76257 357.49063 257.80945 357.49063Q256.57507 357.49063 255.85634 356.6Q255.01259 355.5375 255.01259 353.11563ZM256.0907 353.11563Q256.0907 355.225 256.5907 355.92813Q257.0907 356.63126 257.80945 356.63126Q258.54382 356.63126 259.0282 355.92813Q259.5282 355.225 259.5282 353.11563Q259.5282 350.99063 259.0282 350.30313Q258.54382 349.6 257.79382 349.6Q257.07507 349.6 256.63757 350.20938Q256.0907 350.99063 256.0907 353.11563Z" fill-rule="nonzero"/><path fill="#000000" d="M328.72906 356.33438L328.72906 357.35L323.04156 357.35Q323.04156 356.975 323.16656 356.61563Q323.3853 356.0375 323.85406 355.475Q324.33844 354.9125 325.2447 354.17813Q326.65094 353.02188 327.1353 352.35Q327.6353 351.67813 327.6353 351.08438Q327.6353 350.45938 327.1822 350.0375Q326.72906 349.6 326.0103 349.6Q325.2447 349.6 324.79156 350.05313Q324.33844 350.50626 324.3228 351.31876L323.2447 351.20938Q323.35406 349.99063 324.0728 349.36563Q324.8072 348.725 326.04156 348.725Q327.27594 348.725 327.9947 349.4125Q328.71344 350.1 328.71344 351.11563Q328.71344 351.63126 328.4947 352.13126Q328.29156 352.61563 327.79156 353.17813Q327.3072 353.725 326.1822 354.67813Q325.22906 355.475 324.9478 355.77188Q324.6822 356.05313 324.5103 356.33438L328.72906 356.33438ZM330.1822 353.11563Q330.1822 351.58438 330.4947 350.6625Q330.8072 349.725 331.41656 349.225Q332.04156 348.725 332.97906 348.725Q333.66656 348.725 334.1822 349.00626Q334.71344 349.2875 335.0572 349.81876Q335.40094 350.33438 335.58844 351.08438Q335.77594 351.83438 335.77594 353.11563Q335.77594 354.63126 335.46344 355.55313Q335.16656 356.475 334.54156 356.99063Q333.9322 357.49063 332.97906 357.49063Q331.7447 357.49063 331.02594 356.6Q330.1822 355.5375 330.1822 353.11563ZM331.2603 353.11563Q331.2603 355.225 331.7603 355.92813Q332.2603 356.63126 332.97906 356.63126Q333.71344 356.63126 334.1978 355.92813Q334.6978 355.225 334.6978 353.11563Q334.6978 350.99063 334.1978 350.30313Q333.71344 349.6 332.96344 349.6Q332.2447 349.6 331.8072 350.20938Q331.2603 350.99063 331.2603 353.11563ZM337.1822 353.11563Q337.1822 351.58438 337.4947 350.6625Q337.8072 349.725 338.41656 349.225Q339.04156 348.725 339.97906 348.725Q340.66656 348.725 341.1822 349.00626Q341.71344 349.2875 342.0572 349.81876Q342.40094 350.33438 342.58844 351.08438Q342.77594 351.83438 342.77594 353.11563Q342.77594 354.63126 342.46344 355.55313Q342.16656 356.475 341.54156 356.99063Q340.9322 357.49063 339.97906 357.49063Q338.7447 357.49063 338.02594 356.6Q337.1822 355.5375 337.1822 353.11563ZM338.2603 353.11563Q338.2603 355.225 338.7603 355.92813Q339.2603 356.63126 339.97906 356.63126Q340.71344 356.63126 341.1978 355.92813Q341.6978 355.225 341.6978 353.11563Q341.6978 350.99063 341.1978 350.30313Q340.71344 349.6 339.96344 349.6Q339.2447 349.6 338.8072 350.20938Q338.2603 350.99063 338.2603 353.11563ZM344.1822 353.11563Q344.1822 351.58438 344.4947 350.6625Q344.8072 349.725 345.41656 349.225Q346.04156 348.725 346.97906 348.725Q347.66656 348.725 348.1822 349.00626Q348.71344 349.2875 349.0572 349.81876Q349.40094 350.33438 349.58844 351.08438Q349.77594 351.83438 349.77594 353.11563Q349.77594 354.63126 349.46344 355.55313Q349.16656 356.475 348.54156 356.99063Q347.9322 357.49063 346.97906 357.49063Q345.7447 357.49063 345.02594 356.6Q344.1822 355.5375 344.1822 353.11563ZM345.2603 353.11563Q345.2603 355.225 345.7603 355.92813Q346.2603 356.63126 346.97906 356.63126Q347.71344 356.63126 348.1978 355.92813Q348.6978 355.225 348.6978 353.11563Q348.6978 350.99063 348.1978 350.30313Q347.71344 349.6 346.96344 349.6Q346.2447 349.6 345.8072 350.20938Q345.2603 350.99063 345.2603 353.11563ZM351.1822 353.11563Q351.1822 351.58438 351.4947 350.6625Q351.8072 349.725 352.41656 349.225Q353.04156 348.725 353.97906 348.725Q354.66656 348.725 355.1822 349.00626Q355.71344 349.2875 356.0572 349.81876Q356.40094 350.33438 356.58844 351.08438Q356.77594 351.83438 356.77594 353.11563Q356.77594 354.63126 356.46344 355.55313Q356.16656 356.475 355.54156 356.99063Q354.9322 357.49063 353.97906 357.49063Q352.7447 357.49063 352.02594 356.6Q351.1822 355.5375 351.1822 353.11563ZM352.2603 353.11563Q352.2603 355.225 352.7603 355.92813Q353.2603 356.63126 353.97906 356.63126Q354.71344 356.63126 355.1978 355.92813Q355.6978 355.225 355.6978 353.11563Q355.6978 350.99063 355.1978 350.30313Q354.71344 349.6 353.96344 349.6Q353.2447 349.6 352.8072 350.20938Q352.2603 350.99063 352.2603 353.11563ZM358.1822 353.11563Q358.1822 351.58438 358.4947 350.6625Q358.8072 349.725 359.41656 349.225Q360.04156 348.725 360.97906 348.725Q361.66656 348.725 362.1822 349.00626Q362.71344 349.2875 363.0572 349.81876Q363.40094 350.33438 363.58844 351.08438Q363.77594 351.83438 363.77594 353.11563Q363.77594 354.63126 363.46344 355.55313Q363.16656 356.475 362.54156 356.99063Q361.9322 357.49063 360.97906 357.49063Q359.7447 357.49063 359.02594 356.6Q358.1822 355.5375 358.1822 353.11563ZM359.2603 353.11563Q359.2603 355.225 359.7603 355.92813Q360.2603 356.63126 360.97906 356.63126Q361.71344 356.63126 362.1978 355.92813Q362.6978 355.225 362.6978 353.11563Q362.6978 350.99063 362.1978 350.30313Q361.71344 349.6 360.96344 349.6Q360.2447 349.6 359.8072 350.20938Q359.2603 350.99063 359.2603 353.11563ZM365.1822 353.11563Q365.1822 351.58438 365.4947 350.6625Q365.8072 349.725 366.41656 349.225Q367.04156 348.725 367.97906 348.725Q368.66656 348.725 369.1822 349.00626Q369.71344 349.2875 370.0572 349.81876Q370.40094 350.33438 370.58844 351.08438Q370.77594 351.83438 370.77594 353.11563Q370.77594 354.63126 370.46344 355.55313Q370.16656 356.475 369.54156 356.99063Q368.9322 357.49063 367.97906 357.49063Q366.7447 357.49063 366.02594 356.6Q365.1822 355.5375 365.1822 353.11563ZM366.2603 353.11563Q366.2603 355.225 366.7603 355.92813Q367.2603 356.63126 367.97906 356.63126Q368.71344 356.63126 369.1978 355.92813Q369.6978 355.225 369.6978 353.11563Q369.6978 350.99063 369.1978 350.30313Q368.71344 349.6 367.96344 349.6Q367.2447 349.6 366.8072 350.20938Q366.2603 350.99063 366.2603 353.11563ZM372.1822 353.11563Q372.1822 351.58438 372.4947 350.6625Q372.8072 349.725 373.41656 349.225Q374.04156 348.725 374.97906 348.725Q375.66656 348.725 376.1822 349.00626Q376.71344 349.2875 377.0572 349.81876Q377.40094 350.33438 377.58844 351.08438Q377.77594 351.83438 377.77594 353.11563Q377.77594 354.63126 377.46344 355.55313Q377.16656 356.475 376.54156 356.99063Q375.9322 357.49063 374.97906 357.49063Q373.7447 357.49063 373.02594 356.6Q372.1822 355.5375 372.1822 353.11563ZM373.2603 353.11563Q373.2603 355.225 373.7603 355.92813Q374.2603 356.63126 374.97906 356.63126Q375.71344 356.63126 376.1978 355.92813Q376.6978 355.225 376.6978 353.11563Q376.6978 350.99063 376.1978 350.30313Q375.71344 349.6 374.96344 349.6Q374.2447 349.6 373.8072 350.20938Q373.2603 350.99063 373.2603 353.11563ZM379.1822 353.11563Q379.1822 351.58438 379.4947 350.6625Q379.8072 349.725 380.41656 349.225Q381.04156 348.725 381.97906 348.725Q382.66656 348.725 383.1822 349.00626Q383.71344 349.2875 384.0572 349.81876Q384.40094 350.33438 384.58844 351.08438Q384.77594 351.83438 384.77594 353.11563Q384.77594 354.63126 384.46344 355.55313Q384.16656 356.475 383.54156 356.99063Q382.9322 357.49063 381.97906 357.49063Q380.7447 357.49063 380.02594 356.6Q379.1822 355.5375 379.1822 353.11563ZM380.2603 353.11563Q380.2603 355.225 380.7603 355.92813Q381.2603 356.63126 381.97906 356.63126Q382.71344 356.63126 383.1978 355.92813Q383.6978 355.225 383.6978 353.11563Q383.6978 350.99063 383.1978 350.30313Q382.71344 349.6 381.96344 349.6Q381.2447 349.6 380.8072 350.20938Q380.2603 350.99063 380.2603 353.11563ZM386.1822 353.11563Q386.1822 351.58438 386.4947 350.6625Q386.8072 349.725 387.41656 349.225Q388.04156 348.725 388.97906 348.725Q389.66656 348.725 390.1822 349.00626Q390.71344 349.2875 391.0572 349.81876Q391.40094 350.33438 391.58844 351.08438Q391.77594 351.83438 391.77594 353.11563Q391.77594 354.63126 391.46344 355.55313Q391.16656 356.475 390.54156 356.99063Q389.9322 357.49063 388.97906 357.49063Q387.7447 357.49063 387.02594 356.6Q386.1822 355.5375 386.1822 353.11563ZM387.2603 353.11563Q387.2603 355.225 387.7603 355.92813Q388.2603 356.63126 388.97906 356.63126Q389.71344 356.63126 390.1978 355.92813Q390.6978 355.225 390.6978 353.11563Q390.6978 350.99063 390.1978 350.30313Q389.71344 349.6 388.96344 349.6Q388.2447 349.6 387.8072 350.20938Q387.2603 350.99063 387.2603 353.11563ZM393.1822 353.11563Q393.1822 351.58438 393.4947 350.6625Q393.8072 349.725 394.41656 349.225Q395.04156 348.725 395.97906 348.725Q396.66656 348.725 397.1822 349.00626Q397.71344 349.2875 398.0572 349.81876Q398.40094 350.33438 398.58844 351.08438Q398.77594 351.83438 398.77594 353.11563Q398.77594 354.63126 398.46344 355.55313Q398.16656 356.475 397.54156 356.99063Q396.9322 357.49063 395.97906 357.49063Q394.7447 357.49063 394.02594 356.6Q393.1822 355.5375 393.1822 353.11563ZM394.2603 353.11563Q394.2603 355.225 394.7603 355.92813Q395.2603 356.63126 395.97906 356.63126Q396.71344 356.63126 397.1978 355.92813Q397.6978 355.225 397.6978 353.11563Q397.6978 350.99063 397.1978 350.30313Q396.71344 349.6 395.96344 349.6Q395.2447 349.6 394.8072 350.20938Q394.2603 350.99063 394.2603 353.11563Z" fill-rule="nonzero"/><path fill="#000000" d="M461.3518 355.08438L462.4143 354.94376Q462.58618 355.83438 463.02368 356.24063Q463.46118 356.63126 464.08618 356.63126Q464.83618 356.63126 465.3518 356.11563Q465.86743 355.6 465.86743 354.83438Q465.86743 354.11563 465.38306 353.64688Q464.9143 353.1625 464.17993 353.1625Q463.88306 353.1625 463.42993 353.2875L463.55493 352.35Q463.6643 352.36563 463.7268 352.36563Q464.39868 352.36563 464.92993 352.02188Q465.4768 351.6625 465.4768 350.92813Q465.4768 350.35 465.08618 349.975Q464.69556 349.58438 464.07056 349.58438Q463.46118 349.58438 463.0393 349.975Q462.63306 350.36563 462.52368 351.13126L461.46118 350.94376Q461.64868 349.89688 462.33618 349.31876Q463.02368 348.725 464.0393 348.725Q464.74243 348.725 465.33618 349.0375Q465.92993 349.33438 466.24243 349.85Q466.55493 350.36563 466.55493 350.95938Q466.55493 351.50626 466.25806 351.975Q465.96118 352.42813 465.38306 352.69376Q466.13306 352.86563 466.55493 353.42813Q466.9768 353.975 466.9768 354.81876Q466.9768 355.94376 466.14868 356.725Q465.33618 357.50626 464.08618 357.50626Q462.96118 357.50626 462.21118 356.83438Q461.46118 356.14688 461.3518 355.08438ZM468.3518 353.11563Q468.3518 351.58438 468.6643 350.6625Q468.9768 349.725 469.58618 349.225Q470.21118 348.725 471.14868 348.725Q471.83618 348.725 472.3518 349.00626Q472.88306 349.2875 473.2268 349.81876Q473.57056 350.33438 473.75806 351.08438Q473.94556 351.83438 473.94556 353.11563Q473.94556 354.63126 473.63306 355.55313Q473.33618 356.475 472.71118 356.99063Q472.1018 357.49063 471.14868 357.49063Q469.9143 357.49063 469.19556 356.6Q468.3518 355.5375 468.3518 353.11563ZM469.42993 353.11563Q469.42993 355.225 469.92993 355.92813Q470.42993 356.63126 471.14868 356.63126Q471.88306 356.63126 472.36743 355.92813Q472.86743 355.225 472.86743 353.11563Q472.86743 350.99063 472.36743 350.30313Q471.88306 349.6 471.13306 349.6Q470.4143 349.6 469.9768 350.20938Q469.42993 350.99063 469.42993 353.11563ZM475.3518 353.11563Q475.3518 351.58438 475.6643 350.6625Q475.9768 349.725 476.58618 349.225Q477.21118 348.725 478.14868 348.725Q478.83618 348.725 479.3518 349.00626Q479.88306 349.2875 480.2268 349.81876Q480.57056 350.33438 480.75806 351.08438Q480.94556 351.83438 480.94556 353.11563Q480.94556 354.63126 480.63306 355.55313Q480.33618 356.475 479.71118 356.99063Q479.1018 357.49063 478.14868 357.49063Q476.9143 357.49063 476.19556 356.6Q475.3518 355.5375 475.3518 353.11563ZM476.42993 353.11563Q476.42993 355.225 476.92993 355.92813Q477.42993 356.63126 478.14868 356.63126Q478.88306 356.63126 479.36743 355.92813Q479.86743 355.225 479.86743 353.11563Q479.86743 350.99063 479.36743 350.30313Q478.88306 349.6 478.13306 349.6Q477.4143 349.6 476.9768 350.20938Q476.42993 350.99063 476.42993 353.11563ZM482.3518 353.11563Q482.3518 351.58438 482.6643 350.6625Q482.9768 349.725 483.58618 349.225Q484.21118 348.725 485.14868 348.725Q485.83618 348.725 486.3518 349.00626Q486.88306 349.2875 487.2268 349.81876Q487.57056 350.33438 487.75806 351.08438Q487.94556 351.83438 487.94556 353.11563Q487.94556 354.63126 487.63306 355.55313Q487.33618 356.475 486.71118 356.99063Q486.1018 357.49063 485.14868 357.49063Q483.9143 357.49063 483.19556 356.6Q482.3518 355.5375 482.3518 353.11563ZM483.42993 353.11563Q483.42993 355.225 483.92993 355.92813Q484.42993 356.63126 485.14868 356.63126Q485.88306 356.63126 486.36743 355.92813Q486.86743 355.225 486.86743 353.11563Q486.86743 350.99063 486.36743 350.30313Q485.88306 349.6 485.13306 349.6Q484.4143 349.6 483.9768 350.20938Q483.42993 350.99063 483.42993 353.11563ZM489.3518 353.11563Q489.3518 351.58438 489.6643 350.6625Q489.9768 349.725 490.58618 349.225Q491.21118 348.725 492.14868 348.725Q492.83618 348.725 493.3518 349.00626Q493.88306 349.2875 494.2268 349.81876Q494.57056 350.33438 494.75806 351.08438Q494.94556 351.83438 494.94556 353.11563Q494.94556 354.63126 494.63306 355.55313Q494.33618 356.475 493.71118 356.99063Q493.1018 357.49063 492.14868 357.49063Q490.9143 357.49063 490.19556 356.6Q489.3518 355.5375 489.3518 353.11563ZM490.42993 353.11563Q490.42993 355.225 490.92993 355.92813Q491.42993 356.63126 492.14868 356.63126Q492.88306 356.63126 493.36743 355.92813Q493.86743 355.225 493.86743 353.11563Q493.86743 350.99063 493.36743 350.30313Q492.88306 349.6 492.13306 349.6Q491.4143 349.6 490.9768 350.20938Q490.42993 350.99063 490.42993 353.11563ZM496.3518 353.11563Q496.3518 351.58438 496.6643 350.6625Q496.9768 349.725 497.58618 349.225Q498.21118 348.725 499.14868 348.725Q499.83618 348.725 500.3518 349.00626Q500.88306 349.2875 501.2268 349.81876Q501.57056 350.33438 501.75806 351.08438Q501.94556 351.83438 501.94556 353.11563Q501.94556 354.63126 501.63306 355.55313Q501.33618 356.475 500.71118 356.99063Q500.1018 357.49063 499.14868 357.49063Q497.9143 357.49063 497.19556 356.6Q496.3518 355.5375 496.3518 353.11563ZM497.42993 353.11563Q497.42993 355.225 497.92993 355.92813Q498.42993 356.63126 499.14868 356.63126Q499.88306 356.63126 500.36743 355.92813Q500.86743 355.225 500.86743 353.11563Q500.86743 350.99063 500.36743 350.30313Q499.88306 349.6 499.13306 349.6Q498.4143 349.6 497.9768 350.20938Q497.42993 350.99063 497.42993 353.11563ZM503.3518 353.11563Q503.3518 351.58438 503.6643 350.6625Q503.9768 349.725 504.58618 349.225Q505.21118 348.725 506.14868 348.725Q506.83618 348.725 507.3518 349.00626Q507.88306 349.2875 508.2268 349.81876Q508.57056 350.33438 508.75806 351.08438Q508.94556 351.83438 508.94556 353.11563Q508.94556 354.63126 508.63306 355.55313Q508.33618 356.475 507.71118 356.99063Q507.1018 357.49063 506.14868 357.49063Q504.9143 357.49063 504.19556 356.6Q503.3518 355.5375 503.3518 353.11563ZM504.42993 353.11563Q504.42993 355.225 504.92993 355.92813Q505.42993 356.63126 506.14868 356.63126Q506.88306 356.63126 507.36743 355.92813Q507.86743 355.225 507.86743 353.11563Q507.86743 350.99063 507.36743 350.30313Q506.88306 349.6 506.13306 349.6Q505.4143 349.6 504.9768 350.20938Q504.42993 350.99063 504.42993 353.11563ZM510.3518 353.11563Q510.3518 351.58438 510.6643 350.6625Q510.9768 349.725 511.58618 349.225Q512.2112 348.725 513.1487 348.725Q513.8362 348.725 514.3518 349.00626Q514.88306 349.2875 515.2268 349.81876Q515.57056 350.33438 515.75806 351.08438Q515.94556 351.83438 515.94556 353.11563Q515.94556 354.63126 515.63306 355.55313Q515.3362 356.475 514.7112 356.99063Q514.1018 357.49063 513.1487 357.49063Q511.9143 357.49063 511.19556 356.6Q510.3518 355.5375 510.3518 353.11563ZM511.42993 353.11563Q511.42993 355.225 511.92993 355.92813Q512.42993 356.63126 513.1487 356.63126Q513.88306 356.63126 514.36743 355.92813Q514.86743 355.225 514.86743 353.11563Q514.86743 350.99063 514.36743 350.30313Q513.88306 349.6 513.13306 349.6Q512.4143 349.6 511.9768 350.20938Q511.42993 350.99063 511.42993 353.11563ZM517.3518 353.11563Q517.3518 351.58438 517.6643 350.6625Q517.9768 349.725 518.5862 349.225Q519.2112 348.725 520.1487 348.725Q520.8362 348.725 521.3518 349.00626Q521.88306 349.2875 522.2268 349.81876Q522.57056 350.33438 522.75806 351.08438Q522.94556 351.83438 522.94556 353.11563Q522.94556 354.63126 522.63306 355.55313Q522.3362 356.475 521.7112 356.99063Q521.1018 357.49063 520.1487 357.49063Q518.9143 357.49063 518.19556 356.6Q517.3518 355.5375 517.3518 353.11563ZM518.42993 353.11563Q518.42993 355.225 518.92993 355.92813Q519.42993 356.63126 520.1487 356.63126Q520.88306 356.63126 521.36743 355.92813Q521.86743 355.225 521.86743 353.11563Q521.86743 350.99063 521.36743 350.30313Q520.88306 349.6 520.13306 349.6Q519.4143 349.6 518.9768 350.20938Q518.42993 350.99063 518.42993 353.11563ZM524.3518 353.11563Q524.3518 351.58438 524.6643 350.6625Q524.9768 349.725 525.5862 349.225Q526.2112 348.725 527.1487 348.725Q527.8362 348.725 528.3518 349.00626Q528.88306 349.2875 529.2268 349.81876Q529.57056 350.33438 529.75806 351.08438Q529.94556 351.83438 529.94556 353.11563Q529.94556 354.63126 529.63306 355.55313Q529.3362 356.475 528.7112 356.99063Q528.1018 357.49063 527.1487 357.49063Q525.9143 357.49063 525.19556 356.6Q524.3518 355.5375 524.3518 353.11563ZM525.42993 353.11563Q525.42993 355.225 525.92993 355.92813Q526.42993 356.63126 527.1487 356.63126Q527.88306 356.63126 528.36743 355.92813Q528.86743 355.225 528.86743 353.11563Q528.86743 350.99063 528.36743 350.30313Q527.88306 349.6 527.13306 349.6Q526.4143 349.6 525.9768 350.20938Q525.42993 350.99063 525.42993 353.11563ZM531.3518 353.11563Q531.3518 351.58438 531.6643 350.6625Q531.9768 349.725 532.5862 349.225Q533.2112 348.725 534.1487 348.725Q534.8362 348.725 535.3518 349.00626Q535.88306 349.2875 536.2268 349.81876Q536.57056 350.33438 536.75806 351.08438Q536.94556 351.83438 536.94556 353.11563Q536.94556 354.63126 536.63306 355.55313Q536.3362 356.475 535.7112 356.99063Q535.1018 357.49063 534.1487 357.49063Q532.9143 357.49063 532.19556 356.6Q531.3518 355.5375 531.3518 353.11563ZM532.42993 353.11563Q532.42993 355.225 532.92993 355.92813Q533.42993 356.63126 534.1487 356.63126Q534.88306 356.63126 535.36743 355.92813Q535.86743 355.225 535.86743 353.11563Q535.86743 350.99063 535.36743 350.30313Q534.88306 349.6 534.13306 349.6Q533.4143 349.6 532.9768 350.20938Q532.42993 350.99063 532.42993 353.11563Z" fill-rule="nonzero"/><path fill="#ff00ff" d="M203.0 27.65C203.0 30.963709 200.3137 33.65 197.0 33.65C193.6863 33.65 191.0 30.963709 191.0 27.65C191.0 24.336292 193.6863 21.65 197.0 21.65C200.3137 21.65 203.0 24.336292 203.0 27.65Z" fill-rule="nonzero"/><path fill="#1a1a1a" d="M212.9375 31.65L211.03125 25.43125L212.125 25.43125L213.10938 29.025L213.48438 30.353125Q213.51562 30.259375 213.8125 29.071875L214.79688 25.43125L215.875 25.43125L216.8125 29.040625L217.125 30.228125L217.48438 29.025L218.54688 25.43125L219.57812 25.43125L217.625 31.65L216.53125 31.65L215.54688 27.915625L215.29688 26.86875L214.04688 31.65L212.9375 31.65ZM220.40625 28.540625Q220.40625 26.80625 221.35938 25.978125Q222.15625 25.290625 223.3125 25.290625Q224.59375 25.290625 225.40625 26.134375Q226.23438 26.9625 226.23438 28.446875Q226.23438 29.65 225.875 30.3375Q225.51562 31.025 224.8125 31.415625Q224.125 31.790625 223.3125 31.790625Q222.01562 31.790625 221.20312 30.9625Q220.40625 30.11875 220.40625 28.540625ZM221.48438 28.540625Q221.48438 29.728125 222.0 30.321875Q222.53125 30.915625 223.3125 30.915625Q224.10938 30.915625 224.625 30.321875Q225.14062 29.728125 225.14062 28.509375Q225.14062 27.353125 224.60938 26.759375Q224.09375 26.165625 223.3125 26.165625Q222.53125 26.165625 222.0 26.759375Q221.48438 27.3375 221.48438 28.540625ZM227.78125 31.65L227.78125 25.43125L228.73438 25.43125L228.73438 26.36875Q229.09375 25.7125 229.39062 25.509375Q229.70312 25.290625 230.07812 25.290625Q230.60938 25.290625 231.15625 25.61875L230.79688 26.603125Q230.40625 26.36875 230.03125 26.36875Q229.67188 26.36875 229.39062 26.5875Q229.125 26.790625 229.01562 27.165625Q228.82812 27.728125 228.82812 28.384375L228.82812 31.65L227.78125 31.65ZM231.375 29.790625L232.40625 29.634375Q232.5 30.259375 232.89062 30.5875Q233.29688 30.915625 234.03125 30.915625Q234.75 30.915625 235.09375 30.634375Q235.45312 30.3375 235.45312 29.93125Q235.45312 29.571875 235.14062 29.36875Q234.92188 29.228125 234.0625 29.009375Q232.90625 28.7125 232.45312 28.509375Q232.01562 28.290625 231.78125 27.915625Q231.54688 27.540625 231.54688 27.071875Q231.54688 26.665625 231.73438 26.30625Q231.92188 25.946875 232.25 25.7125Q232.5 25.540625 232.92188 25.415625Q233.34375 25.290625 233.84375 25.290625Q234.5625 25.290625 235.10938 25.509375Q235.67188 25.7125 235.9375 26.071875Q236.20312 26.43125 236.29688 27.025L235.26562 27.165625Q235.20312 26.696875 234.85938 26.43125Q234.53125 26.15 233.90625 26.15Q233.1875 26.15 232.875 26.4Q232.5625 26.634375 232.5625 26.9625Q232.5625 27.165625 232.6875 27.321875Q232.82812 27.49375 233.09375 27.603125Q233.25 27.665625 234.03125 27.86875Q235.15625 28.18125 235.59375 28.36875Q236.03125 28.55625 236.28125 28.915625Q236.53125 29.275 236.53125 29.821875Q236.53125 30.353125 236.21875 30.821875Q235.92188 31.275 235.34375 31.540625Q234.76562 31.790625 234.03125 31.790625Q232.8125 31.790625 232.17188 31.290625Q231.54688 30.775 231.375 29.790625ZM240.09375 30.7125L240.25 31.634375Q239.79688 31.728125 239.45312 31.728125Q238.875 31.728125 238.5625 31.55625Q238.25 31.36875 238.10938 31.071875Q237.98438 30.775 237.98438 29.821875L237.98438 26.24375L237.21875 26.24375L237.21875 25.43125L237.98438 25.43125L237.98438 23.884375L239.03125 23.259375L239.03125 25.43125L240.09375 25.43125L240.09375 26.24375L239.03125 26.24375L239.03125 29.884375Q239.03125 30.3375 239.07812 30.4625Q239.14062 30.5875 239.26562 30.665625Q239.39062 30.74375 239.625 30.74375Q239.8125 30.74375 240.09375 30.7125ZM247.85938 29.36875L248.89062 29.509375Q248.71875 30.571875 248.01562 31.18125Q247.3125 31.790625 246.29688 31.790625Q245.01562 31.790625 244.23438 30.9625Q243.46875 30.11875 243.46875 28.55625Q243.46875 27.55625 243.79688 26.80625Q244.14062 26.040625 244.8125 25.665625Q245.5 25.290625 246.3125 25.290625Q247.3125 25.290625 247.95312 25.80625Q248.60938 26.30625 248.79688 27.259375L247.76562 27.415625Q247.625 26.790625 247.25 26.478125Q246.875 26.15 246.34375 26.15Q245.54688 26.15 245.04688 26.728125Q244.54688 27.290625 244.54688 28.525Q244.54688 29.790625 245.03125 30.353125Q245.51562 30.915625 246.28125 30.915625Q246.90625 30.915625 247.3125 30.540625Q247.73438 30.165625 247.85938 29.36875ZM253.85938 30.884375Q253.26562 31.384375 252.71875 31.5875Q252.1875 31.790625 251.5625 31.790625Q250.53125 31.790625 249.98438 31.290625Q249.4375 30.790625 249.4375 30.009375Q249.4375 29.55625 249.64062 29.18125Q249.84375 28.790625 250.1875 28.571875Q250.53125 28.3375 250.95312 28.228125Q251.25 28.134375 251.89062 28.05625Q253.15625 27.915625 253.76562 27.696875Q253.76562 27.478125 253.76562 27.43125Q253.76562 26.775 253.46875 26.509375Q253.0625 26.165625 252.26562 26.165625Q251.53125 26.165625 251.17188 26.43125Q250.8125 26.68125 250.64062 27.3375L249.60938 27.196875Q249.75 26.540625 250.07812 26.134375Q250.40625 25.728125 251.01562 25.509375Q251.625 25.290625 252.42188 25.290625Q253.21875 25.290625 253.71875 25.478125Q254.21875 25.665625 254.45312 25.946875Q254.6875 26.228125 254.78125 26.665625Q254.82812 26.93125 254.82812 27.634375L254.82812 29.040625Q254.82812 30.509375 254.89062 30.9Q254.96875 31.290625 255.17188 31.65L254.0625 31.65Q253.90625 31.321875 253.85938 30.884375ZM253.76562 28.525Q253.1875 28.759375 252.04688 28.93125Q251.39062 29.025 251.125 29.15Q250.85938 29.259375 250.70312 29.478125Q250.5625 29.696875 250.5625 29.978125Q250.5625 30.4 250.875 30.68125Q251.20312 30.9625 251.8125 30.9625Q252.42188 30.9625 252.89062 30.696875Q253.375 30.43125 253.59375 29.9625Q253.76562 29.603125 253.76562 28.915625L253.76562 28.525ZM256.375 29.790625L257.40625 29.634375Q257.5 30.259375 257.89062 30.5875Q258.29688 30.915625 259.03125 30.915625Q259.75 30.915625 260.09375 30.634375Q260.45312 30.3375 260.45312 29.93125Q260.45312 29.571875 260.14062 29.36875Q259.92188 29.228125 259.0625 29.009375Q257.90625 28.7125 257.45312 28.509375Q257.01562 28.290625 256.78125 27.915625Q256.54688 27.540625 256.54688 27.071875Q256.54688 26.665625 256.73438 26.30625Q256.92188 25.946875 257.25 25.7125Q257.5 25.540625 257.92188 25.415625Q258.34375 25.290625 258.84375 25.290625Q259.5625 25.290625 260.10938 25.509375Q260.67188 25.7125 260.9375 26.071875Q261.20312 26.43125 261.29688 27.025L260.26562 27.165625Q260.20312 26.696875 259.85938 26.43125Q259.53125 26.15 258.90625 26.15Q258.1875 26.15 257.875 26.4Q257.5625 26.634375 257.5625 26.9625Q257.5625 27.165625 257.6875 27.321875Q257.82812 27.49375 258.09375 27.603125Q258.25 27.665625 259.03125 27.86875Q260.15625 28.18125 260.59375 28.36875Q261.03125 28.55625 261.28125 28.915625Q261.53125 29.275 261.53125 29.821875Q261.53125 30.353125 261.21875 30.821875Q260.92188 31.275 260.34375 31.540625Q259.76562 31.790625 259.03125 31.790625Q257.8125 31.790625 257.17188 31.290625Q256.54688 30.775 256.375 29.790625ZM267.04688 29.65L268.14062 29.775Q267.89062 30.728125 267.1875 31.259375Q266.48438 31.790625 265.40625 31.790625Q264.04688 31.790625 263.23438 30.946875Q262.4375 30.103125 262.4375 28.5875Q262.4375 27.025 263.25 26.165625Q264.0625 25.290625 265.34375 25.290625Q266.59375 25.290625 267.375 26.134375Q268.17188 26.978125 268.17188 28.525Q268.17188 28.61875 268.17188 28.80625L263.53125 28.80625Q263.59375 29.8375 264.10938 30.384375Q264.625 30.915625 265.40625 30.915625Q265.98438 30.915625 266.39062 30.61875Q266.8125 30.30625 267.04688 29.65ZM263.59375 27.946875L267.0625 27.946875Q267.0 27.15 266.67188 26.759375Q266.15625 26.15 265.35938 26.15Q264.625 26.15 264.125 26.634375Q263.64062 27.11875 263.59375 27.946875Z" fill-rule="nonzero"/><path stroke="#ff00ff" stroke-width="4.0" stroke-linecap="butt" stroke-opacity="0.4" d="M285.0 27.65L297.0 27.65" fill-rule="nonzero"/><path fill="#1a1a1a" d="M308.10938 31.65L308.10938 24.071875L305.28125 24.071875L305.28125 23.05625L312.09375 23.05625L312.09375 24.071875L309.25 24.071875L309.25 31.65L308.10938 31.65ZM312.78125 31.65L312.78125 25.43125L313.73438 25.43125L313.73438 26.36875Q314.09375 25.7125 314.39062 25.509375Q314.70312 25.290625 315.07812 25.290625Q315.60938 25.290625 316.15625 25.61875L315.79688 26.603125Q315.40625 26.36875 315.03125 26.36875Q314.67188 26.36875 314.39062 26.5875Q314.125 26.790625 314.01562 27.165625Q313.82812 27.728125 313.82812 28.384375L313.82812 31.65L312.78125 31.65ZM321.04688 29.65L322.14062 29.775Q321.89062 30.728125 321.1875 31.259375Q320.48438 31.790625 319.40625 31.790625Q318.04688 31.790625 317.23438 30.946875Q316.4375 30.103125 316.4375 28.5875Q316.4375 27.025 317.25 26.165625Q318.0625 25.290625 319.34375 25.290625Q320.59375 25.290625 321.375 26.134375Q322.17188 26.978125 322.17188 28.525Q322.17188 28.61875 322.17188 28.80625L317.53125 28.80625Q317.59375 29.8375 318.10938 30.384375Q318.625 30.915625 319.40625 30.915625Q319.98438 30.915625 320.39062 30.61875Q320.8125 30.30625 321.04688 29.65ZM317.59375 27.946875L321.0625 27.946875Q321.0 27.15 320.67188 26.759375Q320.15625 26.15 319.35938 26.15Q318.625 26.15 318.125 26.634375Q317.64062 27.11875 317.59375 27.946875ZM323.79688 31.65L323.79688 25.43125L324.73438 25.43125L324.73438 26.30625Q325.42188 25.290625 326.71875 25.290625Q327.28125 25.290625 327.75 25.49375Q328.23438 25.696875 328.46875 26.025Q328.70312 26.353125 328.79688 26.790625Q328.84375 27.0875 328.84375 27.821875L328.84375 31.65L327.79688 31.65L327.79688 27.86875Q327.79688 27.2125 327.67188 26.9Q327.54688 26.5875 327.23438 26.4Q326.92188 26.196875 326.5 26.196875Q325.82812 26.196875 325.32812 26.634375Q324.84375 27.05625 324.84375 28.24375L324.84375 31.65L323.79688 31.65ZM334.82812 31.65L334.82812 30.86875Q334.23438 31.790625 333.09375 31.790625Q332.34375 31.790625 331.71875 31.384375Q331.09375 30.9625 330.75 30.228125Q330.40625 29.49375 330.40625 28.540625Q330.40625 27.61875 330.71875 26.853125Q331.03125 26.0875 331.65625 25.696875Q332.28125 25.290625 333.04688 25.290625Q333.60938 25.290625 334.04688 25.525Q334.48438 25.759375 334.76562 26.134375L334.76562 23.05625L335.8125 23.05625L335.8125 31.65L334.82812 31.65ZM331.5 28.540625Q331.5 29.74375 332.0 30.3375Q332.5 30.915625 333.1875 30.915625Q333.875 30.915625 334.35938 30.353125Q334.84375 29.790625 334.84375 28.634375Q334.84375 27.353125 334.34375 26.759375Q333.85938 26.165625 333.14062 26.165625Q332.4375 26.165625 331.96875 26.74375Q331.5 27.30625 331.5 28.540625ZM340.76562 31.65L340.76562 23.05625L341.82812 23.05625L341.82812 31.65L340.76562 31.65ZM343.79688 24.275L343.79688 23.05625L344.85938 23.05625L344.85938 24.275L343.79688 24.275ZM343.79688 31.65L343.79688 25.43125L344.85938 25.43125L344.85938 31.65L343.79688 31.65ZM346.79688 31.65L346.79688 25.43125L347.73438 25.43125L347.73438 26.30625Q348.42188 25.290625 349.71875 25.290625Q350.28125 25.290625 350.75 25.49375Q351.23438 25.696875 351.46875 26.025Q351.70312 26.353125 351.79688 26.790625Q351.84375 27.0875 351.84375 27.821875L351.84375 31.65L350.79688 31.65L350.79688 27.86875Q350.79688 27.2125 350.67188 26.9Q350.54688 26.5875 350.23438 26.4Q349.92188 26.196875 349.5 26.196875Q348.82812 26.196875 348.32812 26.634375Q347.84375 27.05625 347.84375 28.24375L347.84375 31.65L346.79688 31.65ZM358.04688 29.65L359.14062 29.775Q358.89062 30.728125 358.1875 31.259375Q357.48438 31.790625 356.40625 31.790625Q355.04688 31.790625 354.23438 30.946875Q353.4375 30.103125 353.4375 28.5875Q353.4375 27.025 354.25 26.165625Q355.0625 25.290625 356.34375 25.290625Q357.59375 25.290625 358.375 26.134375Q359.17188 26.978125 359.17188 28.525Q359.17188 28.61875 359.17188 28.80625L354.53125 28.80625Q354.59375 29.8375 355.10938 30.384375Q355.625 30.915625 356.40625 30.915625Q356.98438 30.915625 357.39062 30.61875Q357.8125 30.30625 358.04688 29.65ZM354.59375 27.946875L358.0625 27.946875Q358.0 27.15 357.67188 26.759375Q357.15625 26.15 356.35938 26.15Q355.625 26.15 355.125 26.634375Q354.64062 27.11875 354.59375 27.946875ZM364.9375 31.65L363.03125 25.43125L364.125 25.43125L365.10938 29.025L365.48438 30.353125Q365.51562 30.259375 365.8125 29.071875L366.79688 25.43125L367.875 25.43125L368.8125 29.040625L369.125 30.228125L369.48438 29.025L370.54688 25.43125L371.57812 25.43125L369.625 31.65L368.53125 31.65L367.54688 27.915625L367.29688 26.86875L366.04688 31.65L364.9375 31.65ZM372.40625 28.540625Q372.40625 26.80625 373.35938 25.978125Q374.15625 25.290625 375.3125 25.290625Q376.59375 25.290625 377.40625 26.134375Q378.23438 26.9625 378.23438 28.446875Q378.23438 29.65 377.875 30.3375Q377.51562 31.025 376.8125 31.415625Q376.125 31.790625 375.3125 31.790625Q374.01562 31.790625 373.20312 30.9625Q372.40625 30.11875 372.40625 28.540625ZM373.48438 28.540625Q373.48438 29.728125 374.0 30.321875Q374.53125 30.915625 375.3125 30.915625Q376.10938 30.915625 376.625 30.321875Q377.14062 29.728125 377.14062 28.509375Q377.14062 27.353125 376.60938 26.759375Q376.09375 26.165625 375.3125 26.165625Q374.53125 26.165625 374.0 26.759375Q373.48438 27.3375 373.48438 28.540625ZM379.78125 31.65L379.78125 25.43125L380.73438 25.43125L380.73438 26.36875Q381.09375 25.7125 381.39062 25.509375Q381.70312 25.290625 382.07812 25.290625Q382.60938 25.290625 383.15625 25.61875L382.79688 26.603125Q382.40625 26.36875 382.03125 26.36875Q381.67188 26.36875 381.39062 26.5875Q381.125 26.790625 381.01562 27.165625Q380.82812 27.728125 380.82812 28.384375L380.82812 31.65L379.78125 31.65ZM383.375 29.790625L384.40625 29.634375Q384.5 30.259375 384.89062 30.5875Q385.29688 30.915625 386.03125 30.915625Q386.75 30.915625 387.09375 30.634375Q387.45312 30.3375 387.45312 29.93125Q387.45312 29.571875 387.14062 29.36875Q386.92188 29.228125 386.0625 29.009375Q384.90625 28.7125 384.45312 28.509375Q384.01562 28.290625 383.78125 27.915625Q383.54688 27.540625 383.54688 27.071875Q383.54688 26.665625 383.73438 26.30625Q383.92188 25.946875 384.25 25.7125Q384.5 25.540625 384.92188 25.415625Q385.34375 25.290625 385.84375 25.290625Q386.5625 25.290625 387.10938 25.509375Q387.67188 25.7125 387.9375 26.071875Q388.20312 26.43125 388.29688 27.025L387.26562 27.165625Q387.20312 26.696875 386.85938 26.43125Q386.53125 26.15 385.90625 26.15Q385.1875 26.15 384.875 26.4Q384.5625 26.634375 384.5625 26.9625Q384.5625 27.165625 384.6875 27.321875Q384.82812 27.49375 385.09375 27.603125Q385.25 27.665625 386.03125 27.86875Q387.15625 28.18125 387.59375 28.36875Q388.03125 28.55625 388.28125 28.915625Q388.53125 29.275 388.53125 29.821875Q388.53125 30.353125 388.21875 30.821875Q387.92188 31.275 387.34375 31.540625Q386.76562 31.790625 386.03125 31.790625Q384.8125 31.790625 384.17188 31.290625Q383.54688 30.775 383.375 29.790625ZM392.09375 30.7125L392.25 31.634375Q391.79688 31.728125 391.45312 31.728125Q390.875 31.728125 390.5625 31.55625Q390.25 31.36875 390.10938 31.071875Q389.98438 30.775 389.98438 29.821875L389.98438 26.24375L389.21875 26.24375L389.21875 25.43125L389.98438 25.43125L389.98438 23.884375L391.03125 23.259375L391.03125 25.43125L392.09375 25.43125L392.09375 26.24375L391.03125 26.24375L391.03125 29.884375Q391.03125 30.3375 391.07812 30.4625Q391.14062 30.5875 391.26562 30.665625Q391.39062 30.74375 391.625 30.74375Q391.8125 30.74375 392.09375 30.7125ZM399.85938 29.36875L400.89062 29.509375Q400.71875 30.571875 400.01562 31.18125Q399.3125 31.790625 398.29688 31.790625Q397.01562 31.790625 396.23438 30.9625Q395.46875 30.11875 395.46875 28.55625Q395.46875 27.55625 395.79688 26.80625Q396.14062 26.040625 396.8125 25.665625Q397.5 25.290625 398.3125 25.290625Q399.3125 25.290625 399.95312 25.80625Q400.60938 26.30625 400.79688 27.259375L399.76562 27.415625Q399.625 26.790625 399.25 26.478125Q398.875 26.15 398.34375 26.15Q397.54688 26.15 397.04688 26.728125Q396.54688 27.290625 396.54688 28.525Q396.54688 29.790625 397.03125 30.353125Q397.51562 30.915625 398.28125 30.915625Q398.90625 30.915625 399.3125 30.540625Q399.73438 30.165625 399.85938 29.36875ZM405.85938 30.884375Q405.26562 31.384375 404.71875 31.5875Q404.1875 31.790625 403.5625 31.790625Q402.53125 31.790625 401.98438 31.290625Q401.4375 30.790625 401.4375 30.009375Q401.4375 29.55625 401.64062 29.18125Q401.84375 28.790625 402.1875 28.571875Q402.53125 28.3375 402.95312 28.228125Q403.25 28.134375 403.89062 28.05625Q405.15625 27.915625 405.76562 27.696875Q405.76562 27.478125 405.76562 27.43125Q405.76562 26.775 405.46875 26.509375Q405.0625 26.165625 404.26562 26.165625Q403.53125 26.165625 403.17188 26.43125Q402.8125 26.68125 402.64062 27.3375L401.60938 27.196875Q401.75 26.540625 402.07812 26.134375Q402.40625 25.728125 403.01562 25.509375Q403.625 25.290625 404.42188 25.290625Q405.21875 25.290625 405.71875 25.478125Q406.21875 25.665625 406.45312 25.946875Q406.6875 26.228125 406.78125 26.665625Q406.82812 26.93125 406.82812 27.634375L406.82812 29.040625Q406.82812 30.509375 406.89062 30.9Q406.96875 31.290625 407.17188 31.65L406.0625 31.65Q405.90625 31.321875 405.85938 30.884375ZM405.76562 28.525Q405.1875 28.759375 404.04688 28.93125Q403.39062 29.025 403.125 29.15Q402.85938 29.259375 402.70312 29.478125Q402.5625 29.696875 402.5625 29.978125Q402.5625 30.4 402.875 30.68125Q403.20312 30.9625 403.8125 30.9625Q404.42188 30.9625 404.89062 30.696875Q405.375 30.43125 405.59375 29.9625Q405.76562 29.603125 405.76562 28.915625L405.76562 28.525ZM408.375 29.790625L409.40625 29.634375Q409.5 30.259375 409.89062 30.5875Q410.29688 30.915625 411.03125 30.915625Q411.75 30.915625 412.09375 30.634375Q412.45312 30.3375 412.45312 29.93125Q412.45312 29.571875 412.14062 29.36875Q411.92188 29.228125 411.0625 29.009375Q409.90625 28.7125 409.45312 28.509375Q409.01562 28.290625 408.78125 27.915625Q408.54688 27.540625 408.54688 27.071875Q408.54688 26.665625 408.73438 26.30625Q408.92188 25.946875 409.25 25.7125Q409.5 25.540625 409.92188 25.415625Q410.34375 25.290625 410.84375 25.290625Q411.5625 25.290625 412.10938 25.509375Q412.67188 25.7125 412.9375 26.071875Q413.20312 26.43125 413.29688 27.025L412.26562 27.165625Q412.20312 26.696875 411.85938 26.43125Q411.53125 26.15 410.90625 26.15Q410.1875 26.15 409.875 26.4Q409.5625 26.634375 409.5625 26.9625Q409.5625 27.165625 409.6875 27.321875Q409.82812 27.49375 410.09375 27.603125Q410.25 27.665625 411.03125 27.86875Q412.15625 28.18125 412.59375 28.36875Q413.03125 28.55625 413.28125 28.915625Q413.53125 29.275 413.53125 29.821875Q413.53125 30.353125 413.21875 30.821875Q412.92188 31.275 412.34375 31.540625Q411.76562 31.790625 411.03125 31.790625Q409.8125 31.790625 409.17188 31.290625Q408.54688 30.775 408.375 29.790625ZM419.04688 29.65L420.14062 29.775Q419.89062 30.728125 419.1875 31.259375Q418.48438 31.790625 417.40625 31.790625Q416.04688 31.790625 415.23438 30.946875Q414.4375 30.103125 414.4375 28.5875Q414.4375 27.025 415.25 26.165625Q416.0625 25.290625 417.34375 25.290625Q418.59375 25.290625 419.375 26.134375Q420.17188 26.978125 420.17188 28.525Q420.17188 28.61875 420.17188 28.80625L415.53125 28.80625Q415.59375 29.8375 416.10938 30.384375Q416.625 30.915625 417.40625 30.915625Q417.98438 30.915625 418.39062 30.61875Q418.8125 30.30625 419.04688 29.65ZM415.59375 27.946875L419.0625 27.946875Q419.0 27.15 418.67188 26.759375Q418.15625 26.15 417.35938 26.15Q416.625 26.15 416.125 26.634375Q415.64062 27.11875 415.59375 27.946875ZM424.9375 31.65L424.9375 23.05625L428.75 23.05625Q429.90625 23.05625 430.5 23.290625Q431.09375 23.525 431.45312 24.11875Q431.8125 24.696875 431.8125 25.4Q431.8125 26.321875 431.21875 26.946875Q430.625 27.571875 429.39062 27.74375Q429.84375 27.9625 430.07812 28.165625Q430.57812 28.61875 431.01562 29.30625L432.51562 31.65L431.07812 31.65L429.95312 29.86875Q429.45312 29.0875 429.125 28.68125Q428.8125 28.275 428.54688 28.11875Q428.29688 27.946875 428.03125 27.86875Q427.84375 27.8375 427.40625 27.8375L426.07812 27.8375L426.07812 31.65L424.9375 31.65ZM426.07812 26.853125L428.53125 26.853125Q429.29688 26.853125 429.73438 26.696875Q430.1875 26.525 430.40625 26.18125Q430.64062 25.821875 430.64062 25.4Q430.64062 24.790625 430.1875 24.4Q429.75 24.009375 428.79688 24.009375L426.07812 24.009375L426.07812 26.853125ZM433.14062 27.353125Q433.1875 27.025 433.42188 26.68125Q433.79688 26.18125 434.64062 25.571875Q435.48438 24.9625 435.64062 24.775Q435.85938 24.540625 435.85938 24.290625Q435.85938 24.009375 435.64062 23.8375Q435.4375 23.65 435.04688 23.65Q434.65625 23.65 434.46875 23.790625Q434.28125 23.915625 434.15625 24.30625L433.26562 24.2125Q433.4375 23.571875 433.85938 23.259375Q434.28125 22.946875 435.0625 22.946875Q435.95312 22.946875 436.35938 23.30625Q436.78125 23.65 436.78125 24.15Q436.78125 24.634375 436.42188 25.071875Q436.17188 25.4 435.23438 26.071875Q434.73438 26.43125 434.53125 26.65L436.79688 26.65L436.79688 27.353125L433.14062 27.353125ZM446.34375 26.603125L440.67188 26.603125L440.67188 25.61875L446.34375 25.61875L446.34375 26.603125ZM446.34375 29.2125L440.67188 29.2125L440.67188 28.228125L446.34375 28.228125L446.34375 29.2125ZM450.5 27.415625Q450.5 25.884375 450.8125 24.9625Q451.125 24.025 451.73438 23.525Q452.35938 23.025 453.29688 23.025Q453.98438 23.025 454.5 23.30625Q455.03125 23.5875 455.375 24.11875Q455.71875 24.634375 455.90625 25.384375Q456.09375 26.134375 456.09375 27.415625Q456.09375 28.93125 455.78125 29.853125Q455.48438 30.775 454.85938 31.290625Q454.25 31.790625 453.29688 31.790625Q452.0625 31.790625 451.34375 30.9Q450.5 29.8375 450.5 27.415625ZM451.57812 27.415625Q451.57812 29.525 452.07812 30.228125Q452.57812 30.93125 453.29688 30.93125Q454.03125 30.93125 454.51562 30.228125Q455.01562 29.525 455.01562 27.415625Q455.01562 25.290625 454.51562 24.603125Q454.03125 23.9 453.28125 23.9Q452.5625 23.9 452.125 24.509375Q451.57812 25.290625 451.57812 27.415625ZM458.09375 31.65L458.09375 30.446875L459.29688 30.446875L459.29688 31.65L458.09375 31.65ZM460.65625 29.665625L461.67188 29.571875Q461.79688 30.290625 462.15625 30.61875Q462.53125 30.93125 463.09375 30.93125Q463.57812 30.93125 463.9375 30.7125Q464.3125 30.478125 464.54688 30.11875Q464.78125 29.74375 464.9375 29.11875Q465.09375 28.478125 465.09375 27.821875Q465.09375 27.74375 465.09375 27.603125Q464.78125 28.103125 464.23438 28.43125Q463.6875 28.74375 463.04688 28.74375Q461.96875 28.74375 461.23438 27.978125Q460.5 27.196875 460.5 25.93125Q460.5 24.61875 461.26562 23.821875Q462.04688 23.025 463.20312 23.025Q464.03125 23.025 464.71875 23.478125Q465.42188 23.93125 465.78125 24.775Q466.14062 25.603125 466.14062 27.18125Q466.14062 28.821875 465.78125 29.80625Q465.4375 30.775 464.71875 31.290625Q464.01562 31.790625 463.07812 31.790625Q462.0625 31.790625 461.42188 31.24375Q460.78125 30.68125 460.65625 29.665625ZM464.96875 25.86875Q464.96875 24.9625 464.48438 24.43125Q464.01562 23.9 463.32812 23.9Q462.625 23.9 462.09375 24.478125Q461.57812 25.040625 461.57812 25.9625Q461.57812 26.775 462.07812 27.290625Q462.57812 27.80625 463.29688 27.80625Q464.03125 27.80625 464.5 27.290625Q464.96875 26.775 464.96875 25.86875ZM472.96875 25.165625L471.92188 25.24375Q471.78125 24.61875 471.53125 24.3375Q471.09375 23.884375 470.46875 23.884375Q469.96875 23.884375 469.57812 24.165625Q469.09375 24.540625 468.79688 25.24375Q468.51562 25.93125 468.5 27.2125Q468.875 26.634375 469.42188 26.353125Q469.98438 26.071875 470.59375 26.071875Q471.64062 26.071875 472.375 26.853125Q473.125 27.634375 473.125 28.853125Q473.125 29.665625 472.76562 30.36875Q472.42188 31.05625 471.8125 31.43125Q471.20312 31.790625 470.4375 31.790625Q469.10938 31.790625 468.28125 30.821875Q467.45312 29.853125 467.45312 27.634375Q467.45312 25.134375 468.375 24.009375Q469.17188 23.025 470.53125 23.025Q471.54688 23.025 472.1875 23.603125Q472.84375 24.165625 472.96875 25.165625ZM468.67188 28.86875Q468.67188 29.415625 468.89062 29.915625Q469.125 30.4 469.53125 30.665625Q469.95312 30.93125 470.42188 30.93125Q471.07812 30.93125 471.5625 30.4Q472.04688 29.853125 472.04688 28.93125Q472.04688 28.040625 471.5625 27.525Q471.09375 27.009375 470.375 27.009375Q469.65625 27.009375 469.15625 27.525Q468.67188 28.040625 468.67188 28.86875Z" fill-rule="nonzero"/></svg>